<svg width="515" height="445" viewBox="0 0 515 445" fill="none" xmlns="http://www.w3.org/2000/svg">
<g id="Acrithia">
<g id="Territories">
<path id="HeirApparent" fill-rule="evenodd" clip-rule="evenodd" d="M112.461 27.4407L190.612 91.8697L295.817 98.9173L309.25 0.25H128.25L112.461 27.4407Z" fill="black" fill-opacity="0.6" stroke="#00FF00" stroke-opacity="0.6" stroke-width="0.5" stroke-linecap="round" stroke-linejoin="round"/>
<path id="CampOmicron" fill-rule="evenodd" clip-rule="evenodd" d="M295.82 98.9173L323.875 134.156L455.25 121.25L385.25 0.25H309.25L295.82 98.9173Z" fill="black" fill-opacity="0.6" stroke="#00FF00" stroke-opacity="0.6" stroke-width="0.5" stroke-linecap="round" stroke-linejoin="round"/>
<path id="Swordfort" fill-rule="evenodd" clip-rule="evenodd" d="M0.25 222.25L19.25 255.25L169.579 204.633L190.62 91.8704L112.469 27.4414L0.25 222.25Z" fill="black" fill-opacity="0.6" stroke="#00FF00" stroke-opacity="0.6" stroke-width="0.5" stroke-linecap="round" stroke-linejoin="round"/>
<path id="ThetusRing" fill-rule="evenodd" clip-rule="evenodd" d="M169.57 204.628L316.858 155.294L323.872 134.151L295.817 98.9129L190.611 91.8652L169.57 204.628Z" fill="black" fill-opacity="0.6" stroke="#00FF00" stroke-opacity="0.6" stroke-width="0.5" stroke-linecap="round" stroke-linejoin="round"/>
<path id="LegionRanch" fill-rule="evenodd" clip-rule="evenodd" d="M316.867 155.293L323.881 232.817L487.25 268.25L514.25 222.25L455.25 121.25L323.881 134.15L316.867 155.293Z" fill="black" fill-opacity="0.6" stroke="#00FF00" stroke-opacity="0.6" stroke-width="0.5" stroke-linecap="round" stroke-linejoin="round"/>
<path id="TheBrinehold" fill-rule="evenodd" clip-rule="evenodd" d="M169.891 204.191L288.801 282.151L323.87 232.817L316.856 155.293L169.891 204.191Z" fill="black" fill-opacity="0.6" stroke="#00FF00" stroke-opacity="0.6" stroke-width="0.5" stroke-linecap="round" stroke-linejoin="round"/>
<path id="Patridia" fill-rule="evenodd" clip-rule="evenodd" d="M19.25 255.25L128.25 444.248H274.25L288.794 282.151L169.561 204.627L19.25 255.25Z" fill="black" fill-opacity="0.6" stroke="#00FF00" stroke-opacity="0.6" stroke-width="0.5" stroke-linecap="round" stroke-linejoin="round"/>
<path id="NereidKeep" fill-rule="evenodd" clip-rule="evenodd" d="M274.25 444.25H386.247L487.247 268.25L323.866 232.82L288.797 282.154L274.25 444.25Z" fill="black" fill-opacity="0.6" stroke="#00FF00" stroke-opacity="0.6" stroke-width="0.5" stroke-linecap="round" stroke-linejoin="round"/>
</g>
</g>
</svg>
