<svg width="515" height="445" viewBox="0 0 515 445" fill="none" xmlns="http://www.w3.org/2000/svg">
<g id="AllodsBight">
<g id="Territories">
<path id="Scurvyshire" fill-rule="evenodd" clip-rule="evenodd" d="M128.508 0.25L176.605 127.107L288.826 141.202L386.25 0.25H128.508Z" fill="black" fill-opacity="0.6" stroke="#00FF00" stroke-opacity="0.6" stroke-width="0.5" stroke-linecap="round" stroke-linejoin="round"/>
<path id="Rumhold" fill-rule="evenodd" clip-rule="evenodd" d="M27.3125 175.44L92.4371 176.44L176.603 127.107L128.506 0.25L27.3125 175.44Z" fill="black" fill-opacity="0.6" stroke="#00FF00" stroke-opacity="0.6" stroke-width="0.5" stroke-linecap="round" stroke-linejoin="round"/>
<path id="Homesick" fill-rule="evenodd" clip-rule="evenodd" d="M92.4297 176.441L197.637 232.822L288.817 162.346V141.203L176.596 127.107L92.4297 176.441Z" fill="black" fill-opacity="0.6" stroke="#00FF00" stroke-opacity="0.6" stroke-width="0.5" stroke-linecap="round" stroke-linejoin="round"/>
<path id="TheStonePlank" fill-rule="evenodd" clip-rule="evenodd" d="M288.805 162.346L422.25 381.25L514.25 222.25L386.25 0.25L288.805 141.204V162.346Z" fill="black" fill-opacity="0.6" stroke="#00FF00" stroke-opacity="0.6" stroke-width="0.5" stroke-linecap="round" stroke-linejoin="round"/>
<path id="BelayingTrace" fill-rule="evenodd" clip-rule="evenodd" d="M0.25 221.731L76.4023 353.636L197.638 261.017V232.826L92.43 176.445L27.3054 175.445L0.25 221.731Z" fill="black" fill-opacity="0.6" stroke="#00FF00" stroke-opacity="0.6" stroke-width="0.5" stroke-linecap="round" stroke-linejoin="round"/>
<path id="MercysWail" fill-rule="evenodd" clip-rule="evenodd" d="M197.648 261.01L406.75 408.25L422.25 381.25L288.828 162.344L197.648 232.82V261.01Z" fill="black" fill-opacity="0.6" stroke="#00FF00" stroke-opacity="0.6" stroke-width="0.5" stroke-linecap="round" stroke-linejoin="round"/>
<path id="TheTurncoat" fill-rule="evenodd" clip-rule="evenodd" d="M76.4141 353.631L128.511 444.25H386.023L406.75 408.25L197.649 261.012L76.4141 353.631Z" fill="black" fill-opacity="0.6" stroke="#00FF00" stroke-opacity="0.6" stroke-width="0.5" stroke-linecap="round" stroke-linejoin="round"/>
</g>
</g>
</svg>
