<svg width="515" height="445" viewBox="0 0 515 445" fill="none" xmlns="http://www.w3.org/2000/svg">
<g id="AshFields">
<g id="Territories">
<path id="CampOmega" fill-rule="evenodd" clip-rule="evenodd" d="M295.828 0.25L302.842 132.062L450.25 112.25L385.25 0.25H295.828Z" fill="black" fill-opacity="0.6" stroke="#00FF00" stroke-opacity="0.6" stroke-width="0.5" stroke-linecap="round" stroke-linejoin="round"/>
<path id="Electi" fill-rule="evenodd" clip-rule="evenodd" d="M141.523 0.25L232.702 152.875L281.799 145.937L302.84 132.062L295.826 0.25H141.523Z" fill="black" fill-opacity="0.6" stroke="#00FF00" stroke-opacity="0.6" stroke-width="0.5" stroke-linecap="round" stroke-linejoin="round"/>
<path id="Cometa" fill-rule="evenodd" clip-rule="evenodd" d="M44.25 145.25L232.7 152.875L141.521 0.25H128.25L44.25 145.25Z" fill="black" fill-opacity="0.6" stroke="#00FF00" stroke-opacity="0.6" stroke-width="0.5" stroke-linecap="round" stroke-linejoin="round"/>
<path id="TheAshfort" fill-rule="evenodd" clip-rule="evenodd" d="M281.797 145.935L344.921 249.998L489.25 265.25L514.25 222.25L450.25 112.25L302.838 132.06L281.797 145.935Z" fill="black" fill-opacity="0.6" stroke="#00FF00" stroke-opacity="0.6" stroke-width="0.5" stroke-linecap="round" stroke-linejoin="round"/>
<path id="TheCalamity" fill-rule="evenodd" clip-rule="evenodd" d="M0.25 222.25L106.25 406.25L232.704 152.875L44.25 145.25L0.25 222.25Z" fill="black" fill-opacity="0.6" stroke="#00FF00" stroke-opacity="0.6" stroke-width="0.5" stroke-linecap="round" stroke-linejoin="round"/>
<path id="Ashtown" fill-rule="evenodd" clip-rule="evenodd" d="M106.25 406.25L128.25 444.249H162.563L344.921 250L281.797 145.938L232.701 152.875L106.25 406.25Z" fill="black" fill-opacity="0.6" stroke="#00FF00" stroke-opacity="0.6" stroke-width="0.5" stroke-linecap="round" stroke-linejoin="round"/>
<path id="Sootflow" fill-rule="evenodd" clip-rule="evenodd" d="M162.578 444.246H386.25L489.25 265.251L344.936 249.997L162.578 444.246Z" fill="black" fill-opacity="0.6" stroke="#00FF00" stroke-opacity="0.6" stroke-width="0.5" stroke-linecap="round" stroke-linejoin="round"/>
</g>
</g>
</svg>
