<svg width="515" height="445" viewBox="0 0 515 445" fill="none" xmlns="http://www.w3.org/2000/svg">
<g id="BasinSionnach">
<g id="Territories">
<path id="CuttailStation" fill-rule="evenodd" clip-rule="evenodd" d="M174.227 0.25L208.821 134.154L291.846 211.677L361.034 190.534L425.25 69.25L385.25 0.25H174.227Z" fill="black" fill-opacity="0.6" stroke="#00FF00" stroke-opacity="0.6" stroke-width="0.5" stroke-linecap="round" stroke-linejoin="round"/>
<path id="Sess" fill-rule="evenodd" clip-rule="evenodd" d="M0.25 222.25L44.25 298.25L118.869 275.105L208.814 134.154L174.22 0.25H128.25L0.25 222.25Z" fill="black" fill-opacity="0.6" stroke="#00FF00" stroke-opacity="0.6" stroke-width="0.5" stroke-linecap="round" stroke-linejoin="round"/>
<path id="Stoic" fill-rule="evenodd" clip-rule="evenodd" d="M361.039 190.533L474.25 291.25L514.25 222.25L425.25 69.25L361.039 190.533Z" fill="black" fill-opacity="0.6" stroke="#00FF00" stroke-opacity="0.6" stroke-width="0.5" stroke-linecap="round" stroke-linejoin="round"/>
<path id="TheDen" fill-rule="evenodd" clip-rule="evenodd" d="M118.883 275.106L271.096 303.296L291.853 211.678L208.827 134.154L118.883 275.106Z" fill="black" fill-opacity="0.6" stroke="#00FF00" stroke-opacity="0.6" stroke-width="0.5" stroke-linecap="round" stroke-linejoin="round"/>
<path id="Lamplight" fill-rule="evenodd" clip-rule="evenodd" d="M271.078 303.296L367.941 444.248H386.25L474.25 291.25L361.022 190.535L291.834 211.678L271.078 303.296Z" fill="black" fill-opacity="0.6" stroke="#00FF00" stroke-opacity="0.6" stroke-width="0.5" stroke-linecap="round" stroke-linejoin="round"/>
<path id="Basinhome" fill-rule="evenodd" clip-rule="evenodd" d="M44.25 298.251L128.25 444.25H367.944L271.081 303.299L118.868 275.108L44.25 298.251Z" fill="black" fill-opacity="0.6" stroke="#00FF00" stroke-opacity="0.6" stroke-width="0.5" stroke-linecap="round" stroke-linejoin="round"/>
</g>
</g>
</svg>
