<svg width="515" height="445" viewBox="0 0 515 445" fill="none" xmlns="http://www.w3.org/2000/svg">
<g id="CallumsCape">
<g id="Territories">
<path id="CallumsKeep" fill-rule="evenodd" clip-rule="evenodd" d="M66.9102 106.25L219.57 231.188L282.377 182.625L310.292 0.25H128.6L66.9102 106.25Z" fill="black" fill-opacity="0.6" stroke="#00FF00" stroke-opacity="0.6" stroke-width="0.5" stroke-linecap="round" stroke-linejoin="round"/>
<path id="CampHollow" fill-rule="evenodd" clip-rule="evenodd" d="M282.383 182.625L505.75 208.25L385.309 0.25H310.297L282.383 182.625Z" fill="black" fill-opacity="0.6" stroke="#00FF00" stroke-opacity="0.6" stroke-width="0.5" stroke-linecap="round" stroke-linejoin="round"/>
<path id="Naofa" fill-rule="evenodd" clip-rule="evenodd" d="M0.25 222.246L46.02 301.25L219.576 238.121V231.25L66.91 106.25L0.25 222.246Z" fill="black" fill-opacity="0.6" stroke="#00FF00" stroke-opacity="0.6" stroke-width="0.5" stroke-linecap="round" stroke-linejoin="round"/>
<path id="Holdout" fill-rule="evenodd" clip-rule="evenodd" d="M220.148 237.75L234.106 265.5L303.891 314.063L474.869 290.25L514.248 221.875L505.719 208.25L282.956 182.25L220.148 230.813V237.75Z" fill="black" fill-opacity="0.6" stroke="#00FF00" stroke-opacity="0.6" stroke-width="0.5" stroke-linecap="round" stroke-linejoin="round"/>
<path id="ScoutsJest" fill-rule="evenodd" clip-rule="evenodd" d="M46.0195 301.25L128.61 444.25L233.529 265.871L219.571 238.121L46.0195 301.25Z" fill="black" fill-opacity="0.6" stroke="#00FF00" stroke-opacity="0.6" stroke-width="0.5" stroke-linecap="round" stroke-linejoin="round"/>
<path id="Lookout" fill-rule="evenodd" clip-rule="evenodd" d="M303.332 314.436L338.225 444.248L386.304 444.25L474.869 290.25L303.332 314.436Z" fill="black" fill-opacity="0.6" stroke="#00FF00" stroke-opacity="0.6" stroke-width="0.5" stroke-linecap="round" stroke-linejoin="round"/>
<path id="Ire" fill-rule="evenodd" clip-rule="evenodd" d="M128.609 444.25H338.212L303.319 314.438L233.534 265.875L128.609 444.25Z" fill="black" fill-opacity="0.6" stroke="#00FF00" stroke-opacity="0.6" stroke-width="0.5" stroke-linecap="round" stroke-linejoin="round"/>
</g>
</g>
</svg>
