<svg width="514" height="445" viewBox="0 0 514 445" fill="none" xmlns="http://www.w3.org/2000/svg">
<g id="CallahansPassage">
<g id="Territories">
<path id="Cragstown" fill-rule="evenodd" clip-rule="evenodd" d="M122.75 9.75L201.889 134.154L312.592 120.059L385.25 0.25H128.437L122.75 9.75Z" fill="black" fill-opacity="0.6" stroke="#00FF00" stroke-opacity="0.6" stroke-width="0.5" stroke-linecap="round" stroke-linejoin="round"/>
<path id="WhiteChapel" fill-rule="evenodd" clip-rule="evenodd" d="M312.609 120.059L340.285 155.297L479.25 162.25L385.25 0.25L312.609 120.059Z" fill="black" fill-opacity="0.6" stroke="#00FF00" stroke-opacity="0.6" stroke-width="0.5" stroke-linecap="round" stroke-linejoin="round"/>
<path id="SolasGorge" fill-rule="evenodd" clip-rule="evenodd" d="M0.25 222.25L28.25 270.25L201.899 155.291V134.149L122.75 9.75L0.25 222.25Z" fill="black" fill-opacity="0.6" stroke="#00FF00" stroke-opacity="0.6" stroke-width="0.5" stroke-linecap="round" stroke-linejoin="round"/>
<path id="LochanBerth" fill-rule="evenodd" clip-rule="evenodd" d="M201.891 155.298L250.323 232.822L333.35 246.917L340.269 155.298L312.593 120.061L201.891 134.156V155.298Z" fill="black" fill-opacity="0.6" stroke="#00FF00" stroke-opacity="0.6" stroke-width="0.5" stroke-linecap="round" stroke-linejoin="round"/>
<path id="TheProcession" fill-rule="evenodd" clip-rule="evenodd" d="M333.352 246.913L492.25 260.25L513.75 222.384L479.25 162.25L340.27 155.295L333.352 246.913Z" fill="black" fill-opacity="0.6" stroke="#00FF00" stroke-opacity="0.6" stroke-width="0.5" stroke-linecap="round" stroke-linejoin="round"/>
<path id="ScathPassing" fill-rule="evenodd" clip-rule="evenodd" d="M28.25 270.25L35.0204 282.151H215.741L250.335 232.818L201.903 155.295L28.25 270.25Z" fill="black" fill-opacity="0.6" stroke="#00FF00" stroke-opacity="0.6" stroke-width="0.5" stroke-linecap="round" stroke-linejoin="round"/>
<path id="OverlookHill" fill-rule="evenodd" clip-rule="evenodd" d="M215.742 282.149L229.58 310.34L312.607 345.578L333.364 246.912L250.337 232.816L215.742 282.149Z" fill="black" fill-opacity="0.6" stroke="#00FF00" stroke-opacity="0.6" stroke-width="0.5" stroke-linecap="round" stroke-linejoin="round"/>
<path id="TheLatch" fill-rule="evenodd" clip-rule="evenodd" d="M312.609 345.584L354.123 444.25H386.25L492.25 260.25L333.366 246.918L312.609 345.584Z" fill="black" fill-opacity="0.6" stroke="#00FF00" stroke-opacity="0.6" stroke-width="0.5" stroke-linecap="round" stroke-linejoin="round"/>
<path id="CrumblingPost" fill-rule="evenodd" clip-rule="evenodd" d="M34.9961 282.154L128.25 444.25L229.58 310.345L215.742 282.154H34.9961Z" fill="black" fill-opacity="0.6" stroke="#00FF00" stroke-opacity="0.6" stroke-width="0.5" stroke-linecap="round" stroke-linejoin="round"/>
<path id="TheCrumblingPassage" fill-rule="evenodd" clip-rule="evenodd" d="M128.25 444.246H354.117L312.604 345.58L229.577 310.342L128.25 444.246Z" fill="black" fill-opacity="0.6" stroke="#00FF00" stroke-opacity="0.6" stroke-width="0.5" stroke-linecap="round" stroke-linejoin="round"/>
</g>
</g>
</svg>
