<svg width="515" height="445" viewBox="0 0 515 445" fill="none" xmlns="http://www.w3.org/2000/svg">
<g id="Clahstra">
<g id="Territories">
<path id="ThirdChapter" fill-rule="evenodd" clip-rule="evenodd" d="M211.664 0.25L260.761 159.813L288.816 173.688L424.079 66.6254L386.01 0.25H211.664Z" fill="black" fill-opacity="0.6" stroke="#00FF00" stroke-opacity="0.6" stroke-width="0.5" stroke-linecap="round" stroke-linejoin="round"/>
<path id="TheVault" fill-rule="evenodd" clip-rule="evenodd" d="M69.3867 102.313L162.566 173.688L260.76 159.813L211.663 0.25H128.497L69.3867 102.313Z" fill="black" fill-opacity="0.6" stroke="#00FF00" stroke-opacity="0.6" stroke-width="0.5" stroke-linecap="round" stroke-linejoin="round"/>
<path id="Weephome" fill-rule="evenodd" clip-rule="evenodd" d="M288.809 173.689L309.85 243.064L490.21 263.877L514.251 222.252L424.071 66.626L288.809 173.689Z" fill="black" fill-opacity="0.6" stroke="#00FF00" stroke-opacity="0.6" stroke-width="0.5" stroke-linecap="round" stroke-linejoin="round"/>
<path id="BewailingFort" fill-rule="evenodd" clip-rule="evenodd" d="M0.25 222.252L45.75 301.25L148.54 263.877L162.568 173.689L69.3883 102.313L0.25 222.252Z" fill="black" fill-opacity="0.6" stroke="#00FF00" stroke-opacity="0.6" stroke-width="0.5" stroke-linecap="round" stroke-linejoin="round"/>
<path id="TheTreasury" fill-rule="evenodd" clip-rule="evenodd" d="M148.547 263.876L253.754 298.563L309.865 243.063L288.823 173.688L260.768 159.812L162.575 173.688L148.547 263.876Z" fill="black" fill-opacity="0.6" stroke="#00FF00" stroke-opacity="0.6" stroke-width="0.5" stroke-linecap="round" stroke-linejoin="round"/>
<path id="EastNarthex" fill-rule="evenodd" clip-rule="evenodd" d="M253.746 298.562L253.75 312.25L323.884 444.25H386.009L490.216 263.874L309.857 243.062L253.746 298.562Z" fill="black" fill-opacity="0.6" stroke="#00FF00" stroke-opacity="0.6" stroke-width="0.5" stroke-linecap="round" stroke-linejoin="round"/>
<path id="Transept" fill-rule="evenodd" clip-rule="evenodd" d="M45.75 301.25L101.75 398.25L253.749 312.438V298.563L148.541 263.875L45.75 301.25Z" fill="black" fill-opacity="0.6" stroke="#00FF00" stroke-opacity="0.6" stroke-width="0.5" stroke-linecap="round" stroke-linejoin="round"/>
<path id="WatchfulNave" fill-rule="evenodd" clip-rule="evenodd" d="M101.75 398.25L128.491 444.25H323.878L253.74 312.437L101.75 398.25Z" fill="black" fill-opacity="0.6" stroke="#00FF00" stroke-opacity="0.6" stroke-width="0.5" stroke-linecap="round" stroke-linejoin="round"/>
</g>
</g>
</svg>
