<svg width="515" height="445" viewBox="0 0 515 445" fill="none" xmlns="http://www.w3.org/2000/svg">
<g id="ClansheadValley">
<g id="Territories">
<path id="FortWindham" fill-rule="evenodd" clip-rule="evenodd" d="M73.25 94.2493L211.665 138.999L330.896 76.5619L372.978 0.25H128.25L73.25 94.2493Z" fill="black" fill-opacity="0.6" stroke="#00FF00" stroke-opacity="0.6" stroke-width="0.5" stroke-linecap="round" stroke-linejoin="round"/>
<path id="Sweetholt" fill-rule="evenodd" clip-rule="evenodd" d="M330.895 76.5624L351.935 201.437L505.245 237.25L514.249 222.25L385.246 0.25H372.976L330.895 76.5624Z" fill="black" fill-opacity="0.6" stroke="#00FF00" stroke-opacity="0.6" stroke-width="0.5" stroke-linecap="round" stroke-linejoin="round"/>
<path id="TheKing" fill-rule="evenodd" clip-rule="evenodd" d="M211.664 138.998L232.705 243.06L267.773 256.935L351.936 201.435L330.895 76.5605L211.664 138.998Z" fill="black" fill-opacity="0.6" stroke="#00FF00" stroke-opacity="0.6" stroke-width="0.5" stroke-linecap="round" stroke-linejoin="round"/>
<path id="FallenCrown" fill-rule="evenodd" clip-rule="evenodd" d="M0.25 222.25L40.2497 291.25L232.699 243.062L211.658 139L74.2495 94.25L0.25 222.25Z" fill="black" fill-opacity="0.6" stroke="#00FF00" stroke-opacity="0.6" stroke-width="0.5" stroke-linecap="round" stroke-linejoin="round"/>
<path id="FortEsterwild" fill-rule="evenodd" clip-rule="evenodd" d="M267.77 256.933L281.797 298.558L433.245 362.249L505.244 237.249L351.933 201.433L267.77 256.933Z" fill="black" fill-opacity="0.6" stroke="#00FF00" stroke-opacity="0.6" stroke-width="0.5" stroke-linecap="round" stroke-linejoin="round"/>
<path id="FortEalar" fill-rule="evenodd" clip-rule="evenodd" d="M40.25 291.25L128.249 444.25H183.6L281.791 298.562L267.764 256.937L232.696 243.062L40.25 291.25Z" fill="black" fill-opacity="0.6" stroke="#00FF00" stroke-opacity="0.6" stroke-width="0.5" stroke-linecap="round" stroke-linejoin="round"/>
<path id="ThePike" fill-rule="evenodd" clip-rule="evenodd" d="M183.602 444.25H386.249L433.248 362.25L281.792 298.562L183.602 444.25Z" fill="black" fill-opacity="0.6" stroke="#00FF00" stroke-opacity="0.6" stroke-width="0.5" stroke-linecap="round" stroke-linejoin="round"/>
</g>
</g>
</svg>
