<svg width="515" height="445" viewBox="0 0 515 445" fill="none" xmlns="http://www.w3.org/2000/svg">
<g id="Deadlands">
<g id="Territories">
<path id="CallahansGate" fill-rule="evenodd" clip-rule="evenodd" d="M209.316 0.75L216.235 28.4999L340.25 143.75L347.695 146.437L441.25 96.25L386.25 0.75H209.316Z" fill="black" fill-opacity="0.6" stroke="#00FF00" stroke-opacity="0.6" stroke-width="0.5" stroke-linecap="round" stroke-linejoin="round"/>
<path id="TheSpine" fill-rule="evenodd" clip-rule="evenodd" d="M36.75 159.75L147.057 174.187L188.57 160.312L216.246 28.4999L209.327 0.75L128.25 0.25L36.75 159.75Z" fill="black" fill-opacity="0.6" stroke="#00FF00" stroke-opacity="0.6" stroke-width="0.5" stroke-linecap="round" stroke-linejoin="round"/>
<path id="IronsEnd" fill-rule="evenodd" clip-rule="evenodd" d="M188.578 160.311L243.929 174.186L340.25 143.75L216.254 28.499L188.578 160.311Z" fill="black" fill-opacity="0.6" stroke="#00FF00" stroke-opacity="0.6" stroke-width="0.5" stroke-linecap="round" stroke-linejoin="round"/>
<path id="TheSaltMarch" fill-rule="evenodd" clip-rule="evenodd" d="M347.695 146.436L354.614 250.499L474.25 292.75L514.25 222.75L441.25 96.25L347.695 146.436Z" fill="black" fill-opacity="0.6" stroke="#00FF00" stroke-opacity="0.6" stroke-width="0.5" stroke-linecap="round" stroke-linejoin="round"/>
<path id="CallahansBoot" fill-rule="evenodd" clip-rule="evenodd" d="M243.918 174.187V243.562L313.107 278.25L354.62 250.5L347.75 146.25L340.25 143.75L243.918 174.187Z" fill="black" fill-opacity="0.6" stroke="#00FF00" stroke-opacity="0.6" stroke-width="0.5" stroke-linecap="round" stroke-linejoin="round"/>
<path id="AbandonedWard" fill-rule="evenodd" clip-rule="evenodd" d="M147.051 174.186L181.645 264.373L243.915 243.56V174.186L188.564 160.311L147.051 174.186Z" fill="black" fill-opacity="0.6" stroke="#00FF00" stroke-opacity="0.6" stroke-width="0.5" stroke-linecap="round" stroke-linejoin="round"/>
<path id="LiberationPoint" fill-rule="evenodd" clip-rule="evenodd" d="M0.25 222.75L45.75 300.25L181.642 278.248V264.25L147.047 174.186L36.75 159.75L0.25 222.75Z" fill="black" fill-opacity="0.6" stroke="#00FF00" stroke-opacity="0.6" stroke-width="0.5" stroke-linecap="round" stroke-linejoin="round"/>
<path id="ThePits" fill-rule="evenodd" clip-rule="evenodd" d="M181.652 278.247L202.409 326.809H292.355L313.112 278.247L243.922 243.56L181.652 264.372V278.247Z" fill="black" fill-opacity="0.6" stroke="#00FF00" stroke-opacity="0.6" stroke-width="0.5" stroke-linecap="round" stroke-linejoin="round"/>
<path id="SunsHollow" fill-rule="evenodd" clip-rule="evenodd" d="M45.75 300.25L123.25 434.25L202.4 326.809L181.643 278.247L45.75 300.25Z" fill="black" fill-opacity="0.6" stroke="#00FF00" stroke-opacity="0.6" stroke-width="0.5" stroke-linecap="round" stroke-linejoin="round"/>
<path id="BrineGlen" fill-rule="evenodd" clip-rule="evenodd" d="M292.352 326.813L354.622 444.75L386.75 444.75L474.25 292.75L354.622 250.501L313.108 278.251L292.352 326.813Z" fill="black" fill-opacity="0.6" stroke="#00FF00" stroke-opacity="0.6" stroke-width="0.5" stroke-linecap="round" stroke-linejoin="round"/>
<path id="TheSaltFarms" fill-rule="evenodd" clip-rule="evenodd" d="M123.25 434.25L129.25 444.75L354.605 444.748L292.335 326.811H202.389L123.25 434.25Z" fill="black" fill-opacity="0.6" stroke="#00FF00" stroke-opacity="0.6" stroke-width="0.5" stroke-linecap="round" stroke-linejoin="round"/>
</g>
</g>
</svg>
