<svg width="515" height="445" viewBox="0 0 515 445" fill="none" xmlns="http://www.w3.org/2000/svg">
<g id="DrownedVale">
<g id="Territories">
<path id="TheSaltcaps" fill-rule="evenodd" clip-rule="evenodd" d="M253.742 0.25L281.797 120.059L437.75 90.75L385.75 0.25H253.742Z" fill="black" fill-opacity="0.6" stroke="#00FF00" stroke-opacity="0.6" stroke-width="0.5" stroke-linecap="round" stroke-linejoin="round"/>
<path id="Loggerhead" fill-rule="evenodd" clip-rule="evenodd" d="M104.75 41.25L253.063 168.97L281.796 120.059L253.741 0.25H128.25L104.75 41.25Z" fill="black" fill-opacity="0.6" stroke="#00FF00" stroke-opacity="0.6" stroke-width="0.5" stroke-linecap="round" stroke-linejoin="round"/>
<path id="WispsWarning" fill-rule="evenodd" clip-rule="evenodd" d="M44.25 146.25L155.557 183.485L253.749 169.39L104.75 41.25L44.25 146.25Z" fill="black" fill-opacity="0.6" stroke="#00FF00" stroke-opacity="0.6" stroke-width="0.5" stroke-linecap="round" stroke-linejoin="round"/>
<path id="SingingSerpents" fill-rule="evenodd" clip-rule="evenodd" d="M253.062 168.968L358.948 204.625L471.167 148.244L437.75 90.75L281.797 120.054L253.062 168.968Z" fill="black" fill-opacity="0.6" stroke="#00FF00" stroke-opacity="0.6" stroke-width="0.5" stroke-linecap="round" stroke-linejoin="round"/>
<path id="TheWash" fill-rule="evenodd" clip-rule="evenodd" d="M155.547 183.484L162.561 275.103H239.711L253.739 169.389L155.547 183.484Z" fill="black" fill-opacity="0.6" stroke="#00FF00" stroke-opacity="0.6" stroke-width="0.5" stroke-linecap="round" stroke-linejoin="round"/>
<path id="TheBaths" fill-rule="evenodd" clip-rule="evenodd" d="M239.703 275.103L260.744 296.245L302.983 303.438L351.922 296.245L358.936 204.627L253.731 169.389L239.703 275.103Z" fill="black" fill-opacity="0.6" stroke="#00FF00" stroke-opacity="0.6" stroke-width="0.5" stroke-linecap="round" stroke-linejoin="round"/>
<path id="Eastmarch" fill-rule="evenodd" clip-rule="evenodd" d="M0.25 222.25L63.75 331.75L162.565 275.101L155.551 183.482L44.25 145.75L0.25 222.25Z" fill="black" fill-opacity="0.6" stroke="#00FF00" stroke-opacity="0.6" stroke-width="0.5" stroke-linecap="round" stroke-linejoin="round"/>
<path id="Bootnap" fill-rule="evenodd" clip-rule="evenodd" d="M351.922 296.244L447.25 337.75L514.25 222.25L471.155 148.244L358.936 204.625L351.922 296.244Z" fill="black" fill-opacity="0.6" stroke="#00FF00" stroke-opacity="0.6" stroke-width="0.5" stroke-linecap="round" stroke-linejoin="round"/>
<path id="Vessel" fill-rule="evenodd" clip-rule="evenodd" d="M63.75 331.75L128.25 444.25L260.751 296.246L239.71 275.104H162.559L63.75 331.75Z" fill="black" fill-opacity="0.6" stroke="#00FF00" stroke-opacity="0.6" stroke-width="0.5" stroke-linecap="round" stroke-linejoin="round"/>
<path id="SplinterPens" fill-rule="evenodd" clip-rule="evenodd" d="M128.25 444.25H281.797L302.838 303.298L260.756 296.25L128.25 444.25Z" fill="black" fill-opacity="0.6" stroke="#00FF00" stroke-opacity="0.6" stroke-width="0.5" stroke-linecap="round" stroke-linejoin="round"/>
<path id="CoaldrifterStead" fill-rule="evenodd" clip-rule="evenodd" d="M281.781 444.25H386.25L447.25 337.75L351.918 296.25L302.822 303.298L281.781 444.25Z" fill="black" fill-opacity="0.6" stroke="#00FF00" stroke-opacity="0.6" stroke-width="0.5" stroke-linecap="round" stroke-linejoin="round"/>
</g>
</g>
</svg>
