<svg width="515" height="445" viewBox="0 0 515 445" fill="none" xmlns="http://www.w3.org/2000/svg">
<g id="EndlessShore">
<g id="Territories">
<path id="BrackishPoint" fill-rule="evenodd" clip-rule="evenodd" d="M68.3906 103.964L106.459 120.059H183.61L295.829 0.25H128.5L68.3906 103.964Z" fill="black" fill-opacity="0.6" stroke="#00FF00" stroke-opacity="0.6" stroke-width="0.5" stroke-linecap="round" stroke-linejoin="round"/>
<path id="SidheFall" fill-rule="evenodd" clip-rule="evenodd" d="M183.594 120.059L218.662 176.44L372.963 148.25L429.073 75.7737L385.991 0.25H295.813L183.594 120.059Z" fill="black" fill-opacity="0.6" stroke="#00FF00" stroke-opacity="0.6" stroke-width="0.5" stroke-linecap="round" stroke-linejoin="round"/>
<path id="SaltbrookChannel" fill-rule="evenodd" clip-rule="evenodd" d="M106.453 120.053L141.522 225.767L190.617 239.862L218.672 176.434L183.604 120.053H106.453Z" fill="black" fill-opacity="0.6" stroke="#00FF00" stroke-opacity="0.6" stroke-width="0.5" stroke-linecap="round" stroke-linejoin="round"/>
<path id="TheOldJackTar" fill-rule="evenodd" clip-rule="evenodd" d="M0.25 221.768L10.2637 239.864L141.524 225.768L106.455 120.054L68.3869 103.959L0.25 221.768Z" fill="black" fill-opacity="0.6" stroke="#00FF00" stroke-opacity="0.6" stroke-width="0.5" stroke-linecap="round" stroke-linejoin="round"/>
<path id="Wellchurch" fill-rule="evenodd" clip-rule="evenodd" d="M190.609 239.863L204.637 275.101L239.705 289.196L288.801 282.149L344.911 246.911L372.965 148.244L218.664 176.435L190.609 239.863Z" fill="black" fill-opacity="0.6" stroke="#00FF00" stroke-opacity="0.6" stroke-width="0.5" stroke-linecap="round" stroke-linejoin="round"/>
<path id="TuathaWatchpost" fill-rule="evenodd" clip-rule="evenodd" d="M344.922 246.914L456.141 323.438L514.25 221.771L429.086 75.7715L372.977 148.248L344.922 246.914Z" fill="black" fill-opacity="0.6" stroke="#00FF00" stroke-opacity="0.6" stroke-width="0.5" stroke-linecap="round" stroke-linejoin="round"/>
<path id="EnduringWake" fill-rule="evenodd" clip-rule="evenodd" d="M10.25 239.869L79.3869 359.678L204.633 275.107L190.606 239.869L141.51 225.773L10.25 239.869Z" fill="black" fill-opacity="0.6" stroke="#00FF00" stroke-opacity="0.6" stroke-width="0.5" stroke-linecap="round" stroke-linejoin="round"/>
<path id="Woodbind" fill-rule="evenodd" clip-rule="evenodd" d="M288.82 282.152L386.25 444.25L456.149 323.438L344.93 246.914L288.82 282.152Z" fill="black" fill-opacity="0.6" stroke="#00FF00" stroke-opacity="0.6" stroke-width="0.5" stroke-linecap="round" stroke-linejoin="round"/>
<path id="IronJunction" fill-rule="evenodd" clip-rule="evenodd" d="M79.3906 359.675L128.486 444.246H239.705V289.199L204.637 275.104L79.3906 359.675Z" fill="black" fill-opacity="0.6" stroke="#00FF00" stroke-opacity="0.6" stroke-width="0.5" stroke-linecap="round" stroke-linejoin="round"/>
<path id="TheOverland" fill-rule="evenodd" clip-rule="evenodd" d="M239.703 444.245H386.25L288.799 282.15L239.703 289.198V444.245Z" fill="black" fill-opacity="0.6" stroke="#00FF00" stroke-opacity="0.6" stroke-width="0.5" stroke-linecap="round" stroke-linejoin="round"/>
</g>
</g>
</svg>
