<svg width="519" height="449" viewBox="0 0 519 449" fill="none" xmlns="http://www.w3.org/2000/svg">
<g id="FarranacCoast">
<g id="Territories">
<path id="TransientValley" fill-rule="evenodd" clip-rule="evenodd" d="M249.123 0.25L327.028 121.229H348.275L431.262 79.5308L385.768 0.25H249.123Z" fill="black" fill-opacity="0.6" stroke="#00FF00" stroke-opacity="0.6" stroke-width="0.5" stroke-linecap="round" stroke-linejoin="round"/>
<path id="TheBoneHaft" fill-rule="evenodd" clip-rule="evenodd" d="M66.9883 106.997L291.621 142.579L327.032 121.229L249.127 0.25H128.467L66.9883 106.997Z" fill="black" fill-opacity="0.6" stroke="#00FF00" stroke-opacity="0.6" stroke-width="0.5" stroke-linecap="round" stroke-linejoin="round"/>
<path id="Scythe" fill-rule="evenodd" clip-rule="evenodd" d="M348.277 121.226L376.606 206.623L480.84 164.925L431.264 79.5273L348.277 121.226Z" fill="black" fill-opacity="0.6" stroke="#00FF00" stroke-opacity="0.6" stroke-width="0.5" stroke-linecap="round" stroke-linejoin="round"/>
<path id="ScarpofAmbrose" fill-rule="evenodd" clip-rule="evenodd" d="M13.4102 199.511L234.96 227.977L277.454 213.744L291.618 142.579L66.986 106.997L13.4102 199.511Z" fill="black" fill-opacity="0.6" stroke="#00FF00" stroke-opacity="0.6" stroke-width="0.5" stroke-linecap="round" stroke-linejoin="round"/>
<path id="Terra" fill-rule="evenodd" clip-rule="evenodd" d="M277.453 213.744L369.522 220.861L376.605 206.628L348.276 121.23H327.029L291.618 142.58L277.453 213.744Z" fill="black" fill-opacity="0.6" stroke="#00FF00" stroke-opacity="0.6" stroke-width="0.5" stroke-linecap="round" stroke-linejoin="round"/>
<path id="Mara" fill-rule="evenodd" clip-rule="evenodd" d="M369.523 220.858L383.688 270.673L463.675 310.372L514.251 221.858L480.84 164.927L376.606 206.625L369.523 220.858Z" fill="black" fill-opacity="0.6" stroke="#00FF00" stroke-opacity="0.6" stroke-width="0.5" stroke-linecap="round" stroke-linejoin="round"/>
<path id="Huskhollow" fill-rule="evenodd" clip-rule="evenodd" d="M234.947 227.973L277.441 292.021L383.675 270.672L369.51 220.857L277.441 213.74L234.947 227.973Z" fill="black" fill-opacity="0.6" stroke="#00FF00" stroke-opacity="0.6" stroke-width="0.5" stroke-linecap="round" stroke-linejoin="round"/>
<path id="TheJadeCove" fill-rule="evenodd" clip-rule="evenodd" d="M0.25 221.859L73.0726 348.955L263.294 341.839L277.458 292.023L234.965 227.976L13.4145 199.51L0.25 221.859Z" fill="black" fill-opacity="0.6" stroke="#00FF00" stroke-opacity="0.6" stroke-width="0.5" stroke-linecap="round" stroke-linejoin="round"/>
<path id="PleadingWharf" fill-rule="evenodd" clip-rule="evenodd" d="M263.297 341.838L298.708 377.42L397.86 277.79L383.695 270.674L277.461 292.023L263.297 341.838Z" fill="black" fill-opacity="0.6" stroke="#00FF00" stroke-opacity="0.6" stroke-width="0.5" stroke-linecap="round" stroke-linejoin="round"/>
<path id="MachasKeening" fill-rule="evenodd" clip-rule="evenodd" d="M298.701 377.422L325.25 444.587H385.771L463.675 310.374L397.853 277.792L298.701 377.422Z" fill="black" fill-opacity="0.6" stroke="#00FF00" stroke-opacity="0.6" stroke-width="0.5" stroke-linecap="round" stroke-linejoin="round"/>
<path id="Victa" fill-rule="evenodd" clip-rule="evenodd" d="M73.0723 348.955L128.73 444.585H325.034L298.705 377.421L263.293 341.839L73.0723 348.955Z" fill="black" fill-opacity="0.6" stroke="#00FF00" stroke-opacity="0.6" stroke-width="0.5" stroke-linecap="round" stroke-linejoin="round"/>
</g>
</g>
</svg>
