<svg width="514" height="445" viewBox="0 0 514 445" fill="none" xmlns="http://www.w3.org/2000/svg">
<g id="FarranacCoast">
<g id="Territories">
<path id="TransientValley" fill-rule="evenodd" clip-rule="evenodd" d="M248.154 0.25L325.756 121.138H346.92L429.584 79.4708L384.268 0.25H248.154Z" fill="black" fill-opacity="0.6" stroke="black" stroke-opacity="0.6" stroke-width="0.5" stroke-linecap="round" stroke-linejoin="round"/>
<path id="TheBoneHaft" fill-rule="evenodd" clip-rule="evenodd" d="M66.7285 106.916L290.486 142.471L325.76 121.138L248.158 0.25H127.968L66.7285 106.916Z" fill="black" fill-opacity="0.6" stroke="black" stroke-opacity="0.6" stroke-width="0.5" stroke-linecap="round" stroke-linejoin="round"/>
<path id="Scythe" fill-rule="evenodd" clip-rule="evenodd" d="M346.922 121.135L375.141 206.467L478.969 164.8L429.586 79.4678L346.922 121.135Z" fill="black" fill-opacity="0.6" stroke="black" stroke-opacity="0.6" stroke-width="0.5" stroke-linecap="round" stroke-linejoin="round"/>
<path id="ScarpofAmbrose" fill-rule="evenodd" clip-rule="evenodd" d="M13.3594 199.36L234.047 227.804L276.375 213.582L290.484 142.471L66.7266 106.916L13.3594 199.36Z" fill="black" fill-opacity="0.6" stroke="black" stroke-opacity="0.6" stroke-width="0.5" stroke-linecap="round" stroke-linejoin="round"/>
<path id="Terra" fill-rule="evenodd" clip-rule="evenodd" d="M276.375 213.582L368.086 220.693L375.141 206.471L346.922 121.139H325.758L290.484 142.472L276.375 213.582Z" fill="black" fill-opacity="0.6" stroke="black" stroke-opacity="0.6" stroke-width="0.5" stroke-linecap="round" stroke-linejoin="round"/>
<path id="Mara" fill-rule="evenodd" clip-rule="evenodd" d="M368.086 220.691L382.195 270.468L461.871 310.137L512.25 221.69L478.969 164.802L375.141 206.469L368.086 220.691Z" fill="black" fill-opacity="0.6" stroke="black" stroke-opacity="0.6" stroke-width="0.5" stroke-linecap="round" stroke-linejoin="round"/>
<path id="Huskhollow" fill-rule="evenodd" clip-rule="evenodd" d="M234.033 227.8L276.361 291.8L382.182 270.467L368.072 220.689L276.361 213.578L234.033 227.8Z" fill="black" fill-opacity="0.6" stroke="black" stroke-opacity="0.6" stroke-width="0.5" stroke-linecap="round" stroke-linejoin="round"/>
<path id="TheJadeCove" fill-rule="evenodd" clip-rule="evenodd" d="M0.25 221.691L72.7891 348.69L262.27 341.579L276.379 291.802L234.051 227.803L13.3633 199.358L0.25 221.691Z" fill="black" fill-opacity="0.6" stroke="black" stroke-opacity="0.6" stroke-width="0.5" stroke-linecap="round" stroke-linejoin="round"/>
<path id="PleadingWharf" fill-rule="evenodd" clip-rule="evenodd" d="M262.273 341.579L297.547 377.134L396.313 277.58L382.203 270.469L276.383 291.802L262.273 341.579Z" fill="black" fill-opacity="0.6" stroke="black" stroke-opacity="0.6" stroke-width="0.5" stroke-linecap="round" stroke-linejoin="round"/>
<path id="MachasKeening" fill-rule="evenodd" clip-rule="evenodd" d="M297.539 377.137L323.985 444.25H384.269L461.871 310.14L396.305 277.582L297.539 377.137Z" fill="black" fill-opacity="0.6" stroke="black" stroke-opacity="0.6" stroke-width="0.5" stroke-linecap="round" stroke-linejoin="round"/>
<path id="Victa" fill-rule="evenodd" clip-rule="evenodd" d="M72.7891 348.691L128.23 444.249H323.77L297.543 377.135L262.27 341.58L72.7891 348.691Z" fill="black" fill-opacity="0.6" stroke="black" stroke-opacity="0.6" stroke-width="0.5" stroke-linecap="round" stroke-linejoin="round"/>
</g>
</g>
</svg>
