<svg width="515" height="445" viewBox="0 0 515 445" fill="none" xmlns="http://www.w3.org/2000/svg">
<g id="FishermansRow">
<g id="Territories">
<path id="Oceanwatch" fill-rule="evenodd" clip-rule="evenodd" d="M100.434 48.8128L260.753 111.251L402.032 28.0002L386.004 0.25H128.489L100.434 48.8128Z" fill="black" fill-opacity="0.6" stroke="#00FF00" stroke-opacity="0.6" stroke-width="0.5" stroke-linecap="round" stroke-linejoin="round"/>
<path id="BlackWell" fill-rule="evenodd" clip-rule="evenodd" d="M64.3711 111.249L211.663 187.562L253.747 173.687L260.76 111.249L100.441 48.8115L64.3711 111.249Z" fill="black" fill-opacity="0.6" stroke="#00FF00" stroke-opacity="0.6" stroke-width="0.5" stroke-linecap="round" stroke-linejoin="round"/>
<path id="FortEmber" fill-rule="evenodd" clip-rule="evenodd" d="M253.75 173.687L302.847 208.375L437.112 89.4369L402.042 27.999L260.764 111.249L253.75 173.687Z" fill="black" fill-opacity="0.6" stroke="#00FF00" stroke-opacity="0.6" stroke-width="0.5" stroke-linecap="round" stroke-linejoin="round"/>
<path id="HangmansCourt" fill-rule="evenodd" clip-rule="evenodd" d="M302.832 208.379L323.874 270.816L478.18 284.692L514.249 222.254L437.096 89.4404L302.832 208.379Z" fill="black" fill-opacity="0.6" stroke="#00FF00" stroke-opacity="0.6" stroke-width="0.5" stroke-linecap="round" stroke-linejoin="round"/>
<path id="PeriptiLanding" fill-rule="evenodd" clip-rule="evenodd" d="M0.25 222.249L8.26391 236.124H183.612L211.667 187.561L64.3752 111.248L0.25 222.249Z" fill="black" fill-opacity="0.6" stroke="#00FF00" stroke-opacity="0.6" stroke-width="0.5" stroke-linecap="round" stroke-linejoin="round"/>
<path id="Eidolo" fill-rule="evenodd" clip-rule="evenodd" d="M183.609 236.123L204.651 277.749L288.818 298.561L323.887 270.811L302.846 208.373L253.748 173.686L211.665 187.561L183.609 236.123Z" fill="black" fill-opacity="0.6" stroke="#00FF00" stroke-opacity="0.6" stroke-width="0.5" stroke-linecap="round" stroke-linejoin="round"/>
<path id="DankanaPost" fill-rule="evenodd" clip-rule="evenodd" d="M8.23828 236.126L84.3912 367.939L204.628 277.751L183.586 236.126H8.23828Z" fill="black" fill-opacity="0.6" stroke="#00FF00" stroke-opacity="0.6" stroke-width="0.5" stroke-linecap="round" stroke-linejoin="round"/>
<path id="Arcadia" fill-rule="evenodd" clip-rule="evenodd" d="M84.3984 367.937L128.482 444.25H253.732L288.802 298.562L204.635 277.749L84.3984 367.937Z" fill="black" fill-opacity="0.6" stroke="#00FF00" stroke-opacity="0.6" stroke-width="0.5" stroke-linecap="round" stroke-linejoin="round"/>
<path id="TheSatyrStone" fill-rule="evenodd" clip-rule="evenodd" d="M253.75 444.249H386.014L478.195 284.686L323.889 270.811L288.82 298.561L253.75 444.249Z" fill="black" fill-opacity="0.6" stroke="#00FF00" stroke-opacity="0.6" stroke-width="0.5" stroke-linecap="round" stroke-linejoin="round"/>
</g>
</g>
</svg>
