<svg width="515" height="445" viewBox="0 0 515 445" fill="none" xmlns="http://www.w3.org/2000/svg">
<g id="Godcrofts">
<g id="Territories">
<path id="Fleecewatch" fill-rule="evenodd" clip-rule="evenodd" d="M71.3867 98.9169L211.661 141.203L274.785 0.25H128.497L71.3867 98.9169Z" fill="black" fill-opacity="0.6" stroke="#00FF00" stroke-opacity="0.6" stroke-width="0.5" stroke-linecap="round" stroke-linejoin="round"/>
<path id="Isawa" fill-rule="evenodd" clip-rule="evenodd" d="M211.664 141.203L225.692 155.298L288.815 148.25L358.952 0.25H274.788L211.664 141.203Z" fill="black" fill-opacity="0.6" stroke="#00FF00" stroke-opacity="0.6" stroke-width="0.5" stroke-linecap="round" stroke-linejoin="round"/>
<path id="UrsaBase" fill-rule="evenodd" clip-rule="evenodd" d="M288.816 148.25L323.885 162.346L455.146 121.06L386.009 0.25H358.954L288.816 148.25Z" fill="black" fill-opacity="0.6" stroke="#00FF00" stroke-opacity="0.6" stroke-width="0.5" stroke-linecap="round" stroke-linejoin="round"/>
<path id="Protos" fill-rule="evenodd" clip-rule="evenodd" d="M7.26953 210.678L211.75 246.75L225.695 155.297L211.668 141.202L71.3931 98.916L7.26953 210.678Z" fill="black" fill-opacity="0.6" stroke="#00FF00" stroke-opacity="0.6" stroke-width="0.5" stroke-linecap="round" stroke-linejoin="round"/>
<path id="Argosa" fill-rule="evenodd" clip-rule="evenodd" d="M323.879 162.347L351.934 268.062L483.195 276.11L514.249 222.776L455.14 121.062L323.879 162.347Z" fill="black" fill-opacity="0.6" stroke="#00FF00" stroke-opacity="0.6" stroke-width="0.5" stroke-linecap="round" stroke-linejoin="round"/>
<path id="Saegio" fill-rule="evenodd" clip-rule="evenodd" d="M211.75 246.75L216.75 254.75L302.843 296.251L351.939 268.061L323.884 162.346L288.815 148.251L225.692 155.299L211.75 246.75Z" fill="black" fill-opacity="0.6" stroke="#00FF00" stroke-opacity="0.6" stroke-width="0.5" stroke-linecap="round" stroke-linejoin="round"/>
<path id="TheAxehead" fill-rule="evenodd" clip-rule="evenodd" d="M0.25 221.772L96.4422 388.868L216.75 254.75L211.75 246.75L7.26373 210.677L0.25 221.772Z" fill="black" fill-opacity="0.6" stroke="#00FF00" stroke-opacity="0.6" stroke-width="0.5" stroke-linecap="round" stroke-linejoin="round"/>
<path id="Exile" fill-rule="evenodd" clip-rule="evenodd" d="M96.4453 388.868L128.5 444.249H288.816L302.843 296.249L216.75 254.75L96.4453 388.868Z" fill="black" fill-opacity="0.6" stroke="#00FF00" stroke-opacity="0.6" stroke-width="0.5" stroke-linecap="round" stroke-linejoin="round"/>
<path id="Lipsia" fill-rule="evenodd" clip-rule="evenodd" d="M288.816 444.25H386.009L483.201 276.107L351.94 268.06L302.844 296.25L288.816 444.25Z" fill="black" fill-opacity="0.6" stroke="#00FF00" stroke-opacity="0.6" stroke-width="0.5" stroke-linecap="round" stroke-linejoin="round"/>
</g>
</g>
</svg>
