<svg width="515" height="445" viewBox="0 0 515 445" fill="none" xmlns="http://www.w3.org/2000/svg">
<g id="GreatMarch">
<g id="Territories">
<path id="Lionsfort" fill-rule="evenodd" clip-rule="evenodd" d="M244.25 0.25L250.25 14.25L395.642 125.124L453.25 118.25L385.25 0.25H244.25Z" fill="black" fill-opacity="0.6" stroke="#00FF00" stroke-opacity="0.6" stroke-width="0.5" stroke-linecap="round" stroke-linejoin="round"/>
<path id="Violethome" fill-rule="evenodd" clip-rule="evenodd" d="M48.6797 138.998L105.033 145.936L236.495 104.311L250.334 14.1248L244.25 0.25H128.25L48.6797 138.998Z" fill="black" fill-opacity="0.6" stroke="#00FF00" stroke-opacity="0.6" stroke-width="0.5" stroke-linecap="round" stroke-linejoin="round"/>
<path id="MyrmidonsStay" fill-rule="evenodd" clip-rule="evenodd" d="M236.5 104.313L257.257 139.001L340.287 159.813L395.639 125.126L250.338 14.127L236.5 104.313Z" fill="black" fill-opacity="0.6" stroke="#00FF00" stroke-opacity="0.6" stroke-width="0.5" stroke-linecap="round" stroke-linejoin="round"/>
<path id="CampSenti" fill-rule="evenodd" clip-rule="evenodd" d="M105.039 145.935L209.25 229.25L257.259 138.998L236.502 104.311L105.039 145.935Z" fill="black" fill-opacity="0.6" stroke="#00FF00" stroke-opacity="0.6" stroke-width="0.5" stroke-linecap="round" stroke-linejoin="round"/>
<path id="RemnantVilla" fill-rule="evenodd" clip-rule="evenodd" d="M209.25 229.25L333.367 236.124L340.286 159.812L257.257 139L209.25 229.25Z" fill="black" fill-opacity="0.6" stroke="#00FF00" stroke-opacity="0.6" stroke-width="0.5" stroke-linecap="round" stroke-linejoin="round"/>
<path id="DendroField" fill-rule="evenodd" clip-rule="evenodd" d="M333.352 236.126L433.25 362.25L514.25 222.25L453.25 118.25L395.623 125.127L340.271 159.814L333.352 236.126Z" fill="black" fill-opacity="0.6" stroke="#00FF00" stroke-opacity="0.6" stroke-width="0.5" stroke-linecap="round" stroke-linejoin="round"/>
<path id="Leto" fill-rule="evenodd" clip-rule="evenodd" d="M0.25 222.249L68.25 340.25L181.147 298.561L209.25 229.25L105.037 145.937L48.6837 139L0.25 222.249Z" fill="black" fill-opacity="0.6" stroke="#00FF00" stroke-opacity="0.6" stroke-width="0.5" stroke-linecap="round" stroke-linejoin="round"/>
<path id="Sitaria" fill-rule="evenodd" clip-rule="evenodd" d="M181.156 298.564L410.25 402.25L433.25 362.25L333.376 236.127L209.25 229.25L181.156 298.564Z" fill="black" fill-opacity="0.6" stroke="#00FF00" stroke-opacity="0.6" stroke-width="0.5" stroke-linecap="round" stroke-linejoin="round"/>
<path id="TheSwan" fill-rule="evenodd" clip-rule="evenodd" d="M68.25 340.25L128.25 444.25H386.25L410.25 402.25L181.143 298.564L68.25 340.25Z" fill="black" fill-opacity="0.6" stroke="#00FF00" stroke-opacity="0.6" stroke-width="0.5" stroke-linecap="round" stroke-linejoin="round"/>
</g>
</g>
</svg>
