<svg width="515" height="445" viewBox="0 0 515 445" fill="none" xmlns="http://www.w3.org/2000/svg">
<g id="Heartlands">
<g id="Territories">
<path id="BarronyRanch" fill-rule="evenodd" clip-rule="evenodd" d="M81.25 82.2496L225.681 90.4375L302.829 14.125V0.25H128.25L81.25 82.2496Z" fill="black" fill-opacity="0.6" stroke="#00FF00" stroke-opacity="0.6" stroke-width="0.5" stroke-linecap="round" stroke-linejoin="round"/>
<path id="GreenfieldOrchard" fill-rule="evenodd" clip-rule="evenodd" d="M302.844 14.125L337.911 139L457.249 124.249L385.25 0.25H302.844V14.125Z" fill="black" fill-opacity="0.6" stroke="#00FF00" stroke-opacity="0.6" stroke-width="0.5" stroke-linecap="round" stroke-linejoin="round"/>
<path id="ThePlough" fill-rule="evenodd" clip-rule="evenodd" d="M225.688 90.4394L232.701 145.939L274.782 173.689L323.876 152.877L337.903 139.002L302.836 14.127L225.688 90.4394Z" fill="black" fill-opacity="0.6" stroke="#00FF00" stroke-opacity="0.6" stroke-width="0.5" stroke-linecap="round" stroke-linejoin="round"/>
<path id="TheBreach" fill-rule="evenodd" clip-rule="evenodd" d="M70.25 101.25L155.552 159.812L232.7 145.937L225.687 90.4375L81.25 82.25L70.25 101.25Z" fill="black" fill-opacity="0.6" stroke="#00FF00" stroke-opacity="0.6" stroke-width="0.5" stroke-linecap="round" stroke-linejoin="round"/>
<path id="FortProvidence" fill-rule="evenodd" clip-rule="evenodd" d="M323.867 152.874L379.975 208.374L476.249 157.249L457.249 124.249L337.894 138.999L323.867 152.874Z" fill="black" fill-opacity="0.6" stroke="#00FF00" stroke-opacity="0.6" stroke-width="0.5" stroke-linecap="round" stroke-linejoin="round"/>
<path id="Barronswall" fill-rule="evenodd" clip-rule="evenodd" d="M155.555 159.81L183.609 319.372L239.716 291.622L274.784 173.685L232.703 145.935L155.555 159.81Z" fill="black" fill-opacity="0.6" stroke="#00FF00" stroke-opacity="0.6" stroke-width="0.5" stroke-linecap="round" stroke-linejoin="round"/>
<path id="DeeplawPost" fill-rule="evenodd" clip-rule="evenodd" d="M0.25 222.254L100.25 395.249L183.6 319.379L155.546 159.816L70.2497 101.25L0.25 222.254Z" fill="black" fill-opacity="0.6" stroke="#00FF00" stroke-opacity="0.6" stroke-width="0.5" stroke-linecap="round" stroke-linejoin="round"/>
<path id="TheBlemish" fill-rule="evenodd" clip-rule="evenodd" d="M239.727 291.626H365.969L379.996 208.376L323.888 152.876L274.794 173.688L239.727 291.626Z" fill="black" fill-opacity="0.6" stroke="#00FF00" stroke-opacity="0.6" stroke-width="0.5" stroke-linecap="round" stroke-linejoin="round"/>
<path id="OleanderHomestead" fill-rule="evenodd" clip-rule="evenodd" d="M365.969 291.622L453.25 327.248L514.252 222.247L476.25 157.249L379.996 208.372L365.969 291.622Z" fill="black" fill-opacity="0.6" stroke="#00FF00" stroke-opacity="0.6" stroke-width="0.5" stroke-linecap="round" stroke-linejoin="round"/>
<path id="Proexi" fill-rule="evenodd" clip-rule="evenodd" d="M100.25 395.25L128.25 444.25H386.249L453.249 327.25L365.97 291.625H239.729L183.622 319.375L100.25 395.25Z" fill="black" fill-opacity="0.6" stroke="#00FF00" stroke-opacity="0.6" stroke-width="0.5" stroke-linecap="round" stroke-linejoin="round"/>
</g>
</g>
</svg>
