<svg width="515" height="445" viewBox="0 0 515 445" fill="none" xmlns="http://www.w3.org/2000/svg">
<g id="HowlCounty">
<g id="Territories">
<path id="GreatWardenDam" fill-rule="evenodd" clip-rule="evenodd" d="M253.742 0.25L281.797 232.821L289.25 233.25L379.988 218.726L422.07 63.6786L385.25 0.25H253.742Z" fill="black" fill-opacity="0.6" stroke="#00FF00" stroke-opacity="0.6" stroke-width="0.5" stroke-linecap="round" stroke-linejoin="round"/>
<path id="SlipgateOutpost" fill-rule="evenodd" clip-rule="evenodd" d="M99.25 51.25L169.566 225.774L281.784 232.821L253.73 0.25H128.25L99.25 51.25Z" fill="black" fill-opacity="0.6" stroke="#00FF00" stroke-opacity="0.6" stroke-width="0.5" stroke-linecap="round" stroke-linejoin="round"/>
<path id="FortRed" fill-rule="evenodd" clip-rule="evenodd" d="M379.992 218.727L480.25 281.25L514.25 222.25L422.074 63.6797L379.992 218.727Z" fill="black" fill-opacity="0.6" stroke="#00FF00" stroke-opacity="0.6" stroke-width="0.5" stroke-linecap="round" stroke-linejoin="round"/>
<path id="HungryWolf" fill-rule="evenodd" clip-rule="evenodd" d="M0.25 222.25L61.25 328.25L85.25 310.25L169.577 225.776L99.25 51.25L0.25 222.25Z" fill="black" fill-opacity="0.6" stroke="#00FF00" stroke-opacity="0.6" stroke-width="0.5" stroke-linecap="round" stroke-linejoin="round"/>
<path id="TellerFarm" fill-rule="evenodd" clip-rule="evenodd" d="M85.4062 310.345L239.706 345.583L281.788 296.25L289.25 233.25L169.57 225.773L85.4062 310.345Z" fill="black" fill-opacity="0.6" stroke="#00FF00" stroke-opacity="0.6" stroke-width="0.5" stroke-linecap="round" stroke-linejoin="round"/>
<path id="Sickleshire" fill-rule="evenodd" clip-rule="evenodd" d="M281.781 296.25L423.25 380.25L480.25 281.25L379.972 218.727L289.25 233.25L281.781 296.25Z" fill="black" fill-opacity="0.6" stroke="#00FF00" stroke-opacity="0.6" stroke-width="0.5" stroke-linecap="round" stroke-linejoin="round"/>
<path id="LittleLamb" fill-rule="evenodd" clip-rule="evenodd" d="M239.703 345.583L260.744 444.25H386.25L423.25 380.25L281.785 296.25L239.703 345.583Z" fill="black" fill-opacity="0.6" stroke="#00FF00" stroke-opacity="0.6" stroke-width="0.5" stroke-linecap="round" stroke-linejoin="round"/>
<path id="FortRider" fill-rule="evenodd" clip-rule="evenodd" d="M61.25 328.25L128.531 444.249H260.749L239.708 345.582L85.4081 310.344L61.25 328.25Z" fill="black" fill-opacity="0.6" stroke="#00FF00" stroke-opacity="0.6" stroke-width="0.5" stroke-linecap="round" stroke-linejoin="round"/>
</g>
</g>
</svg>
