<svg width="515" height="445" viewBox="0 0 515 445" fill="none" xmlns="http://www.w3.org/2000/svg">
<g id="Kalokai">
<g id="Territories">
<path id="Sourtooth" fill-rule="evenodd" clip-rule="evenodd" d="M116.25 21.25L167.331 70.7253L188.088 77.7728L422.25 63.25L385.25 0.25H128.25L116.25 21.25Z" fill="black" fill-opacity="0.6" stroke="#00FF00" stroke-opacity="0.6" stroke-width="0.5" stroke-linecap="round" stroke-linejoin="round"/>
<path id="Sweethearth" fill-rule="evenodd" clip-rule="evenodd" d="M188.078 77.7767L340.295 176.442L483.25 169.25L422.25 63.25L188.078 77.7767Z" fill="black" fill-opacity="0.6" stroke="#00FF00" stroke-opacity="0.6" stroke-width="0.5" stroke-linecap="round" stroke-linejoin="round"/>
<path id="Hallow" fill-rule="evenodd" clip-rule="evenodd" d="M167.305 70.7285L188.062 253.964L271.089 261.012L340.278 176.441L188.062 77.776L167.305 70.7285Z" fill="black" fill-opacity="0.6" stroke="#00FF00" stroke-opacity="0.6" stroke-width="0.5" stroke-linecap="round" stroke-linejoin="round"/>
<path id="NightsRegret" fill-rule="evenodd" clip-rule="evenodd" d="M0.25 222.25L73.25 348.25L188.062 253.963L167.305 70.7272L116.25 21.25L0.25 222.25Z" fill="black" fill-opacity="0.6" stroke="#00FF00" stroke-opacity="0.6" stroke-width="0.5" stroke-linecap="round" stroke-linejoin="round"/>
<path id="CampTau" fill-rule="evenodd" clip-rule="evenodd" d="M271.086 261.014L312.6 331.49L425.25 376.25L514.25 222.25L483.25 169.25L340.275 176.444L271.086 261.014Z" fill="black" fill-opacity="0.6" stroke="#00FF00" stroke-opacity="0.6" stroke-width="0.5" stroke-linecap="round" stroke-linejoin="round"/>
<path id="BaccaeRidge" fill-rule="evenodd" clip-rule="evenodd" d="M73.25 348.25L121.25 432.25L312.611 331.488L271.098 261.012L188.07 253.965L73.25 348.25Z" fill="black" fill-opacity="0.6" stroke="#00FF00" stroke-opacity="0.6" stroke-width="0.5" stroke-linecap="round" stroke-linejoin="round"/>
<path id="LostGreensward" fill-rule="evenodd" clip-rule="evenodd" d="M121.25 432.25L128.25 444.251H386.25L425.25 376.25L312.601 331.49L121.25 432.25Z" fill="black" fill-opacity="0.6" stroke="#00FF00" stroke-opacity="0.6" stroke-width="0.5" stroke-linecap="round" stroke-linejoin="round"/>
</g>
</g>
</svg>
