<svg width="515" height="445" viewBox="0 0 515 445" fill="none" xmlns="http://www.w3.org/2000/svg">
<g id="KingsCage">
<g id="Territories">
<path id="TheBailie" fill-rule="evenodd" clip-rule="evenodd" d="M87.4219 70.625L162.572 132.063L274.789 159.813L365.966 0.25H128.504L87.4219 70.625Z" fill="black" fill-opacity="0.6" stroke="#00FF00" stroke-opacity="0.6" stroke-width="0.5" stroke-linecap="round" stroke-linejoin="round"/>
<path id="DenofKnaves" fill-rule="evenodd" clip-rule="evenodd" d="M274.793 159.813L281.807 180.625L502.228 201.438L386.011 0.25H365.97L274.793 159.813Z" fill="black" fill-opacity="0.6" stroke="#00FF00" stroke-opacity="0.6" stroke-width="0.5" stroke-linecap="round" stroke-linejoin="round"/>
<path id="Slipchain" fill-rule="evenodd" clip-rule="evenodd" d="M0.25 222.251L52.3453 312.439L134.509 277.751L162.563 132.064L87.4133 70.626L0.25 222.251Z" fill="black" fill-opacity="0.6" stroke="#00FF00" stroke-opacity="0.6" stroke-width="0.5" stroke-linecap="round" stroke-linejoin="round"/>
<path id="TheManacle" fill-rule="evenodd" clip-rule="evenodd" d="M134.504 277.749H253.735L267.762 263.874L281.79 180.624L274.776 159.812L162.558 132.062L134.504 277.749Z" fill="black" fill-opacity="0.6" stroke="#00FF00" stroke-opacity="0.6" stroke-width="0.5" stroke-linecap="round" stroke-linejoin="round"/>
<path id="Eastknife" fill-rule="evenodd" clip-rule="evenodd" d="M267.773 263.873L482.182 277.748L514.25 222.248L502.223 201.436L281.801 180.623L267.773 263.873Z" fill="black" fill-opacity="0.6" stroke="#00FF00" stroke-opacity="0.6" stroke-width="0.5" stroke-linecap="round" stroke-linejoin="round"/>
<path id="GibbetFields" fill-rule="evenodd" clip-rule="evenodd" d="M253.738 277.75L260.752 298.563L417.051 390.75L482.174 277.75L267.765 263.875L253.738 277.75Z" fill="black" fill-opacity="0.6" stroke="#00FF00" stroke-opacity="0.6" stroke-width="0.5" stroke-linecap="round" stroke-linejoin="round"/>
<path id="Scarlethold" fill-rule="evenodd" clip-rule="evenodd" d="M52.3477 312.435L128.497 444.247H225.688L260.756 298.56L253.742 277.747H134.511L52.3477 312.435Z" fill="black" fill-opacity="0.6" stroke="#00FF00" stroke-opacity="0.6" stroke-width="0.5" stroke-linecap="round" stroke-linejoin="round"/>
<path id="Southblade" fill-rule="evenodd" clip-rule="evenodd" d="M225.695 444.25H386.008L417.063 390.75L260.763 298.562L225.695 444.25Z" fill="black" fill-opacity="0.6" stroke="#00FF00" stroke-opacity="0.6" stroke-width="0.5" stroke-linecap="round" stroke-linejoin="round"/>
</g>
</g>
</svg>
