<svg width="515" height="445" viewBox="0 0 515 445" fill="none" xmlns="http://www.w3.org/2000/svg">
<g id="LinnMercy">
<g id="Territories">
<path id="Rotdust" fill-rule="evenodd" clip-rule="evenodd" d="M218.68 0.25L253.748 127.107L288.816 141.202L409.25 41.25L385.75 0.25L218.68 0.25Z" fill="black" fill-opacity="0.6" stroke="#00FF00" stroke-opacity="0.6" stroke-width="0.5" stroke-linecap="round" stroke-linejoin="round"/>
<path id="TheLongWhine" fill-rule="evenodd" clip-rule="evenodd" d="M38.25 156.25L113.75 176.44H127.502L253.748 127.107L218.68 0.25H127.502L38.25 156.25Z" fill="black" fill-opacity="0.6" stroke="#00FF00" stroke-opacity="0.6" stroke-width="0.5" stroke-linecap="round" stroke-linejoin="round"/>
<path id="Lathair" fill-rule="evenodd" clip-rule="evenodd" d="M288.816 141.204L330.898 211.68C383.756 183.59 413.392 167.84 466.25 139.75L409.25 41.25L288.816 141.204Z" fill="black" fill-opacity="0.6" stroke="#00FF00" stroke-opacity="0.6" stroke-width="0.5" stroke-linecap="round" stroke-linejoin="round"/>
<path id="UlsterFalls" fill-rule="evenodd" clip-rule="evenodd" d="M127.504 176.443L267.777 268.062L330.9 239.871V211.681L288.818 141.205L253.75 127.109L127.504 176.443Z" fill="black" fill-opacity="0.6" stroke="#00FF00" stroke-opacity="0.6" stroke-width="0.5" stroke-linecap="round" stroke-linejoin="round"/>
<path id="OutwichRanch" fill-rule="evenodd" clip-rule="evenodd" d="M330.895 239.869L358.949 268.059L470.25 297.75L514.25 222.25L466.25 139.75L330.895 211.678V239.869Z" fill="black" fill-opacity="0.6" stroke="#00FF00" stroke-opacity="0.6" stroke-width="0.5" stroke-linecap="round" stroke-linejoin="round"/>
<path id="Hardline" fill-rule="evenodd" clip-rule="evenodd" d="M113.465 176.438L162.561 303.295L267.765 268.056L127.492 176.438H113.465Z" fill="black" fill-opacity="0.6" stroke="#00FF00" stroke-opacity="0.6" stroke-width="0.5" stroke-linecap="round" stroke-linejoin="round"/>
<path id="TheCrimsonGardens" fill-rule="evenodd" clip-rule="evenodd" d="M0.25 222.25L87.25 372.75L134.51 345.585L162.564 303.3L113.469 176.443L38.25 156.25L0.25 222.25Z" fill="black" fill-opacity="0.6" stroke="#00FF00" stroke-opacity="0.6" stroke-width="0.5" stroke-linecap="round" stroke-linejoin="round"/>
<path id="TheFirstCoin" fill-rule="evenodd" clip-rule="evenodd" d="M134.52 345.582L253.752 359.678L267.779 268.059L162.574 303.297L134.52 345.582Z" fill="black" fill-opacity="0.6" stroke="#00FF00" stroke-opacity="0.6" stroke-width="0.5" stroke-linecap="round" stroke-linejoin="round"/>
<path id="ThePrairieBazaar" fill-rule="evenodd" clip-rule="evenodd" d="M253.738 359.679L316.861 444.25L358.943 268.06L330.889 239.869L267.766 268.06L253.738 359.679Z" fill="black" fill-opacity="0.6" stroke="#00FF00" stroke-opacity="0.6" stroke-width="0.5" stroke-linecap="round" stroke-linejoin="round"/>
<path id="FortDuncan" fill-rule="evenodd" clip-rule="evenodd" d="M316.875 444.249H386.25L470.25 297.75L358.957 268.059L316.875 444.249Z" fill="black" fill-opacity="0.6" stroke="#00FF00" stroke-opacity="0.6" stroke-width="0.5" stroke-linecap="round" stroke-linejoin="round"/>
<path id="TheLastGrove" fill-rule="evenodd" clip-rule="evenodd" d="M87.25 372.75L128.25 444.25H316.873L253.75 359.678L134.518 345.583L87.25 372.75Z" fill="black" fill-opacity="0.6" stroke="#00FF00" stroke-opacity="0.6" stroke-width="0.5" stroke-linecap="round" stroke-linejoin="round"/>
</g>
</g>
</svg>
