<svg width="515" height="445" viewBox="0 0 515 445" fill="none" xmlns="http://www.w3.org/2000/svg">
<g id="LochMor">
<g id="Territories">
<path id="MercysWish" fill-rule="evenodd" clip-rule="evenodd" d="M148.539 0.25L211.66 134.155L267.768 120.06L288.808 0.25H148.539Z" fill="black" fill-opacity="0.6" stroke="#00FF00" stroke-opacity="0.6" stroke-width="0.5" stroke-linecap="round" stroke-linejoin="round"/>
<path id="Westmarch" fill-rule="evenodd" clip-rule="evenodd" d="M267.773 120.06L344.921 155.298L451.123 114.012L385.989 0.25H288.814L267.773 120.06Z" fill="black" fill-opacity="0.6" stroke="#00FF00" stroke-opacity="0.6" stroke-width="0.5" stroke-linecap="round" stroke-linejoin="round"/>
<path id="TomboftheFirst" fill-rule="evenodd" clip-rule="evenodd" d="M43.25 148.25L169.57 169.393L211.651 134.155L148.53 0.25H128.49L43.25 148.25Z" fill="black" fill-opacity="0.6" stroke="#00FF00" stroke-opacity="0.6" stroke-width="0.5" stroke-linecap="round" stroke-linejoin="round"/>
<path id="Feirmor" fill-rule="evenodd" clip-rule="evenodd" d="M169.594 169.386L204.661 282.148L309.863 261.005L344.93 155.291L267.782 120.053L211.674 134.148L169.594 169.386Z" fill="black" fill-opacity="0.6" stroke="#00FF00" stroke-opacity="0.6" stroke-width="0.5" stroke-linecap="round" stroke-linejoin="round"/>
<path id="MoonsCopse" fill-rule="evenodd" clip-rule="evenodd" d="M309.859 261.01L443.115 345.581L514.249 221.772L451.128 114.01L344.927 155.295L309.859 261.01Z" fill="black" fill-opacity="0.6" stroke="#00FF00" stroke-opacity="0.6" stroke-width="0.5" stroke-linecap="round" stroke-linejoin="round"/>
<path id="MarketRoad" fill-rule="evenodd" clip-rule="evenodd" d="M0.25 221.768L107.452 408.006L204.64 282.149L169.573 169.387L43.25 148.25L0.25 221.768Z" fill="black" fill-opacity="0.6" stroke="#00FF00" stroke-opacity="0.6" stroke-width="0.5" stroke-linecap="round" stroke-linejoin="round"/>
<path id="TheRoilfort" fill-rule="evenodd" clip-rule="evenodd" d="M107.438 408.008L128.478 444.246H385.962L443.083 345.579L309.827 261.008L204.626 282.151L107.438 408.008Z" fill="black" fill-opacity="0.6" stroke="#00FF00" stroke-opacity="0.6" stroke-width="0.5" stroke-linecap="round" stroke-linejoin="round"/>
</g>
</g>
</svg>
