<svg width="515" height="445" viewBox="0 0 515 445" fill="none" xmlns="http://www.w3.org/2000/svg">
<g id="MarbanHollow">
<g id="Territories">
<path id="Mox" fill-rule="evenodd" clip-rule="evenodd" d="M211.652 0.25L246.722 98.9164L401.027 127.107L451.138 114.012L385.999 0.25H211.652Z" fill="black" fill-opacity="0.6" stroke="#00FF00" stroke-opacity="0.6" stroke-width="0.5" stroke-linecap="round" stroke-linejoin="round"/>
<path id="Sanctum" fill-rule="evenodd" clip-rule="evenodd" d="M0.25 222.726L19.2916 254.964L148.542 218.726L232.708 134.154L246.736 98.9164L211.666 0.25H128.514L0.25 222.726Z" fill="black" fill-opacity="0.6" stroke="#00FF00" stroke-opacity="0.6" stroke-width="0.5" stroke-linecap="round" stroke-linejoin="round"/>
<path id="CheckpointBua" fill-rule="evenodd" clip-rule="evenodd" d="M232.707 134.154L351.943 253.963L401.04 127.106L246.735 98.916L232.707 134.154Z" fill="black" fill-opacity="0.6" stroke="#00FF00" stroke-opacity="0.6" stroke-width="0.5" stroke-linecap="round" stroke-linejoin="round"/>
<path id="OsterWall" fill-rule="evenodd" clip-rule="evenodd" d="M351.93 253.961L358.944 296.246L452.138 329.484L514.249 221.723L451.138 114.009L401.027 127.104L351.93 253.961Z" fill="black" fill-opacity="0.6" stroke="#00FF00" stroke-opacity="0.6" stroke-width="0.5" stroke-linecap="round" stroke-linejoin="round"/>
<path id="MaidensVeil" fill-rule="evenodd" clip-rule="evenodd" d="M148.531 218.725L288.809 317.392L358.948 296.249L351.934 253.963L232.698 134.154L148.531 218.725Z" fill="black" fill-opacity="0.6" stroke="#00FF00" stroke-opacity="0.6" stroke-width="0.5" stroke-linecap="round" stroke-linejoin="round"/>
<path id="TheSpitrocks" fill-rule="evenodd" clip-rule="evenodd" d="M19.2773 254.965L128.499 444.25H204.638L288.805 317.393L148.527 218.727L19.2773 254.965Z" fill="black" fill-opacity="0.6" stroke="#00FF00" stroke-opacity="0.6" stroke-width="0.5" stroke-linecap="round" stroke-linejoin="round"/>
<path id="Lockheed" fill-rule="evenodd" clip-rule="evenodd" d="M204.633 444.248H385.994L452.133 329.486L358.938 296.248L288.799 317.391L204.633 444.248Z" fill="black" fill-opacity="0.6" stroke="#00FF00" stroke-opacity="0.6" stroke-width="0.5" stroke-linecap="round" stroke-linejoin="round"/>
</g>
</g>
</svg>
