<svg width="515" height="445" viewBox="0 0 515 445" fill="none" xmlns="http://www.w3.org/2000/svg">
<g id="MooringCounty">
<g id="Territories">
<path id="Ogmaran" fill-rule="evenodd" clip-rule="evenodd" d="M120.375 14.25L197.838 152.875L289.11 145.937L296.131 90.4373L246.985 0.25H128.383L120.375 14.25Z" fill="black" fill-opacity="0.6" stroke="#00FF00" stroke-opacity="0.6" stroke-width="0.5" stroke-linecap="round" stroke-linejoin="round"/>
<path id="Borderlane" fill-rule="evenodd" clip-rule="evenodd" d="M247.008 0.25L296.154 90.4373L405.672 34.2501L385.652 0.25H247.008Z" fill="black" fill-opacity="0.6" stroke="#00FF00" stroke-opacity="0.6" stroke-width="0.5" stroke-linecap="round" stroke-linejoin="round"/>
<path id="ReachingRiver" fill-rule="evenodd" clip-rule="evenodd" d="M33.2812 164.25L197.849 152.873L120.373 14.25L33.2812 164.25Z" fill="black" fill-opacity="0.6" stroke="#00FF00" stroke-opacity="0.6" stroke-width="0.5" stroke-linecap="round" stroke-linejoin="round"/>
<path id="TheSpade" fill-rule="evenodd" clip-rule="evenodd" d="M0.25 222.25L24.2501 263.25L148.403 257.25L169.751 250.002L204.856 152.877L33.2834 164.25L0.25 222.25Z" fill="black" fill-opacity="0.6" stroke="#00FF00" stroke-opacity="0.6" stroke-width="0.5" stroke-linecap="round" stroke-linejoin="round"/>
<path id="Headstone" fill-rule="evenodd" clip-rule="evenodd" d="M169.766 250L295.553 278.25L338.598 180.25L289.121 145.938L204.87 152.875L169.766 250Z" fill="black" fill-opacity="0.6" stroke="#00FF00" stroke-opacity="0.6" stroke-width="0.5" stroke-linecap="round" stroke-linejoin="round"/>
<path id="LuchsWorkshop" fill-rule="evenodd" clip-rule="evenodd" d="M289.109 145.937L338.598 180.25L490.251 181.25L405.667 34.25L296.13 90.4374L289.109 145.937Z" fill="black" fill-opacity="0.6" stroke="#00FF00" stroke-opacity="0.6" stroke-width="0.5" stroke-linecap="round" stroke-linejoin="round"/>
<path id="MorrighansGrave" fill-rule="evenodd" clip-rule="evenodd" d="M295.555 278.249L344.748 320.298L475.251 290.249L514.249 222.173L490.251 181.249L338.6 180.249L295.555 278.249Z" fill="black" fill-opacity="0.6" stroke="#00FF00" stroke-opacity="0.6" stroke-width="0.5" stroke-linecap="round" stroke-linejoin="round"/>
<path id="GravekeepersHoldfast" fill-rule="evenodd" clip-rule="evenodd" d="M148.406 257.25L183.8 347.125L232.946 354.062L295.56 278.25L169.758 250L148.406 257.25Z" fill="black" fill-opacity="0.6" stroke="#00FF00" stroke-opacity="0.6" stroke-width="0.5" stroke-linecap="round" stroke-linejoin="round"/>
<path id="TheCut" fill-rule="evenodd" clip-rule="evenodd" d="M24.25 263.25L102.25 399.25L183.805 347.125L148.402 257.25L24.25 263.25Z" fill="black" fill-opacity="0.6" stroke="#00FF00" stroke-opacity="0.6" stroke-width="0.5" stroke-linecap="round" stroke-linejoin="round"/>
<path id="MacConmaraBarrows" fill-rule="evenodd" clip-rule="evenodd" d="M232.953 354.062L275.078 444.25L351.616 444.25L344.609 320.25L295.557 278.25L232.953 354.062Z" fill="black" fill-opacity="0.6" stroke="#00FF00" stroke-opacity="0.6" stroke-width="0.5" stroke-linecap="round" stroke-linejoin="round"/>
<path id="TheWindHills" fill-rule="evenodd" clip-rule="evenodd" d="M102.25 399.25L128.387 444.25H275.089L232.963 354.062L183.817 347.125L102.25 399.25Z" fill="black" fill-opacity="0.6" stroke="#00FF00" stroke-opacity="0.6" stroke-width="0.5" stroke-linecap="round" stroke-linejoin="round"/>
<path id="Wiccwalk" fill-rule="evenodd" clip-rule="evenodd" d="M344.609 320.25L351.617 444.25H386.652L475.25 290.25L344.609 320.25Z" fill="black" fill-opacity="0.6" stroke="#00FF00" stroke-opacity="0.6" stroke-width="0.5" stroke-linecap="round" stroke-linejoin="round"/>
</g>
</g>
</svg>
