<svg width="515" height="445" viewBox="0 0 515 445" fill="none" xmlns="http://www.w3.org/2000/svg">
<g id="MorgensCrossing">
<g id="Territories">
<path id="Eversus" fill-rule="evenodd" clip-rule="evenodd" d="M76.3906 89.4373L232.693 125.125L253.734 0.25H128.487L76.3906 89.4373Z" fill="black" fill-opacity="0.6" stroke="#00FF00" stroke-opacity="0.6" stroke-width="0.5" stroke-linecap="round" stroke-linejoin="round"/>
<path id="Allsight" fill-rule="evenodd" clip-rule="evenodd" d="M232.688 118.187L438.1 91.4373L385.99 0.25H253.729L232.688 118.187Z" fill="black" fill-opacity="0.6" stroke="#00FF00" stroke-opacity="0.6" stroke-width="0.5" stroke-linecap="round" stroke-linejoin="round"/>
<path id="BastardsBlock" fill-rule="evenodd" clip-rule="evenodd" d="M232.688 125.128L239.701 194.503L494.196 187.565L438.1 91.4404L232.688 118.19V125.128Z" fill="black" fill-opacity="0.6" stroke="#00FF00" stroke-opacity="0.6" stroke-width="0.5" stroke-linecap="round" stroke-linejoin="round"/>
<path id="Quietus" fill-rule="evenodd" clip-rule="evenodd" d="M0.25 222.253L24.305 263.878L204.649 250.003L239.717 194.503L232.704 125.128L76.4013 89.4404L0.25 222.253Z" fill="black" fill-opacity="0.6" stroke="#00FF00" stroke-opacity="0.6" stroke-width="0.5" stroke-linecap="round" stroke-linejoin="round"/>
<path id="Lividus" fill-rule="evenodd" clip-rule="evenodd" d="M204.645 250.001L394.016 430.375L514.25 222.251L494.208 187.563L239.713 194.501L204.645 250.001Z" fill="black" fill-opacity="0.6" stroke="#00FF00" stroke-opacity="0.6" stroke-width="0.5" stroke-linecap="round" stroke-linejoin="round"/>
<path id="CallumsDescent" fill-rule="evenodd" clip-rule="evenodd" d="M24.3086 263.875L128.501 444.25H386.01L394.024 430.375L204.652 250L24.3086 263.875Z" fill="black" fill-opacity="0.6" stroke="#00FF00" stroke-opacity="0.6" stroke-width="0.5" stroke-linecap="round" stroke-linejoin="round"/>
</g>
</g>
</svg>
