<svg width="515" height="445" viewBox="0 0 515 445" fill="none" xmlns="http://www.w3.org/2000/svg">
<g id="NevishLine">
<g id="Territories">
<path id="Unruly" fill-rule="evenodd" clip-rule="evenodd" d="M232.691 0.25L260.747 48.8123L415.05 104.312L437.092 89.4372L385.995 0.25H232.691Z" fill="black" fill-opacity="0.6" stroke="#00FF00" stroke-opacity="0.6" stroke-width="0.5" stroke-linecap="round" stroke-linejoin="round"/>
<path id="BlindingStones" fill-rule="evenodd" clip-rule="evenodd" d="M20.2773 187.562L169.567 194.499L246.719 166.749L260.747 48.8123L232.691 0.25H128.484L20.2773 187.562Z" fill="black" fill-opacity="0.6" stroke="#00FF00" stroke-opacity="0.6" stroke-width="0.5" stroke-linecap="round" stroke-linejoin="round"/>
<path id="TheScryingBelt" fill-rule="evenodd" clip-rule="evenodd" d="M246.727 166.748L337.906 173.685L415.058 104.31L260.754 48.8105L246.727 166.748Z" fill="black" fill-opacity="0.6" stroke="#00FF00" stroke-opacity="0.6" stroke-width="0.5" stroke-linecap="round" stroke-linejoin="round"/>
<path id="MistleShrine" fill-rule="evenodd" clip-rule="evenodd" d="M337.906 173.689L358.948 222.251L478.182 284.689L514.251 222.251L437.1 89.4395L416.058 103.314L337.906 173.689Z" fill="black" fill-opacity="0.6" stroke="#00FF00" stroke-opacity="0.6" stroke-width="0.5" stroke-linecap="round" stroke-linejoin="round"/>
<path id="Princefal" fill-rule="evenodd" clip-rule="evenodd" d="M169.57 194.499L274.777 312.436L358.943 222.249L337.902 173.686L246.722 166.749L169.57 194.499Z" fill="black" fill-opacity="0.6" stroke="#00FF00" stroke-opacity="0.6" stroke-width="0.5" stroke-linecap="round" stroke-linejoin="round"/>
<path id="GriefMother" fill-rule="evenodd" clip-rule="evenodd" d="M274.785 312.438V318.25L385.992 444.25L478.185 284.688L358.951 222.251L274.785 312.438Z" fill="black" fill-opacity="0.6" stroke="#00FF00" stroke-opacity="0.6" stroke-width="0.5" stroke-linecap="round" stroke-linejoin="round"/>
<path id="BlackcoatWay" fill-rule="evenodd" clip-rule="evenodd" d="M0.25 222.252L92.4295 381.814L274.75 318.25V312.25L169.581 194.502L20.2914 187.564L0.25 222.252Z" fill="black" fill-opacity="0.6" stroke="#00FF00" stroke-opacity="0.6" stroke-width="0.5" stroke-linecap="round" stroke-linejoin="round"/>
<path id="TombFather" fill-rule="evenodd" clip-rule="evenodd" d="M92.4141 381.812L128.483 444.25H385.98L274.75 318.25L92.4141 381.812Z" fill="black" fill-opacity="0.6" stroke="#00FF00" stroke-opacity="0.6" stroke-width="0.5" stroke-linecap="round" stroke-linejoin="round"/>
</g>
</g>
</svg>
