<svg width="515" height="445" viewBox="0 0 515 445" fill="none" xmlns="http://www.w3.org/2000/svg">
<g id="Oarbreaker">
<g id="Territories">
<path id="GrislyRefuge" fill-rule="evenodd" clip-rule="evenodd" d="M71.3867 98.9165L204.65 162.345L232.705 155.297L260.761 0.25H128.497L71.3867 98.9165Z" fill="black" fill-opacity="0.6" stroke="#00FF00" stroke-opacity="0.6" stroke-width="0.5" stroke-linecap="round" stroke-linejoin="round"/>
<path id="TheConclave" fill-rule="evenodd" clip-rule="evenodd" d="M232.691 155.297L309.844 176.44L436.093 86.8213L385.996 0.25H260.747L232.691 155.297Z" fill="black" fill-opacity="0.6" stroke="#00FF00" stroke-opacity="0.6" stroke-width="0.5" stroke-linecap="round" stroke-linejoin="round"/>
<path id="Gold" fill-rule="evenodd" clip-rule="evenodd" d="M0.25 221.773L38.3192 288.201L176.596 225.773L204.652 162.344L71.3885 98.916L0.25 221.773Z" fill="black" fill-opacity="0.6" stroke="#00FF00" stroke-opacity="0.6" stroke-width="0.5" stroke-linecap="round" stroke-linejoin="round"/>
<path id="FortFogwood" fill-rule="evenodd" clip-rule="evenodd" d="M309.848 176.442L337.903 232.823L488.208 267.061L514.249 222.775L436.097 86.8232L309.848 176.442Z" fill="black" fill-opacity="0.6" stroke="#00FF00" stroke-opacity="0.6" stroke-width="0.5" stroke-linecap="round" stroke-linejoin="round"/>
<path id="Silver" fill-rule="evenodd" clip-rule="evenodd" d="M176.59 225.771L242.25 308.25L302.839 289.199L337.908 232.819L309.853 176.438L232.701 155.295L204.645 162.343L176.59 225.771Z" fill="black" fill-opacity="0.6" stroke="#00FF00" stroke-opacity="0.6" stroke-width="0.5" stroke-linecap="round" stroke-linejoin="round"/>
<path id="PartisanIsland" fill-rule="evenodd" clip-rule="evenodd" d="M302.832 289.201L409.04 403.963L488.206 267.058L337.901 232.82L302.832 289.201Z" fill="black" fill-opacity="0.6" stroke="#00FF00" stroke-opacity="0.6" stroke-width="0.5" stroke-linecap="round" stroke-linejoin="round"/>
<path id="TheDirk" fill-rule="evenodd" clip-rule="evenodd" d="M38.3125 288.2L75.3956 353.628L239.714 317.39L242.25 308.25L176.589 225.771L38.3125 288.2Z" fill="black" fill-opacity="0.6" stroke="#00FF00" stroke-opacity="0.6" stroke-width="0.5" stroke-linecap="round" stroke-linejoin="round"/>
<path id="Posterus" fill-rule="evenodd" clip-rule="evenodd" d="M239.711 317.39L246.725 444.247H386.002L409.043 403.961L302.836 289.199L242.25 308.25L239.711 317.39Z" fill="black" fill-opacity="0.6" stroke="#00FF00" stroke-opacity="0.6" stroke-width="0.5" stroke-linecap="round" stroke-linejoin="round"/>
<path id="Integrum" fill-rule="evenodd" clip-rule="evenodd" d="M75.3789 353.632L128.476 444.25H246.711L239.697 317.394L75.3789 353.632Z" fill="black" fill-opacity="0.6" stroke="#00FF00" stroke-opacity="0.6" stroke-width="0.5" stroke-linecap="round" stroke-linejoin="round"/>
</g>
</g>
</svg>
