<svg width="515" height="445" viewBox="0 0 515 445" fill="none" xmlns="http://www.w3.org/2000/svg">
<g id="Origin">
<g id="Territories">
<path id="TheSteelRoad" fill-rule="evenodd" clip-rule="evenodd" d="M97.25 53.2496L239.705 111.249L437.247 90.2493L385.248 0.25H128.25L97.25 53.2496Z" fill="black" fill-opacity="0.6" stroke="#00FF00" stroke-opacity="0.6" stroke-width="0.5" stroke-linecap="round" stroke-linejoin="round"/>
<path id="Initium" fill-rule="evenodd" clip-rule="evenodd" d="M239.703 111.25L316.855 243.062L465.248 138.25L437.248 90.25L239.703 111.25Z" fill="black" fill-opacity="0.6" stroke="#00FF00" stroke-opacity="0.6" stroke-width="0.5" stroke-linecap="round" stroke-linejoin="round"/>
<path id="Arise" fill-rule="evenodd" clip-rule="evenodd" d="M71.25 98.2499L260.764 277.746L310.248 250.25L316.874 243.059L239.722 111.246L97.2498 53.25L71.25 98.2499Z" fill="black" fill-opacity="0.6" stroke="#00FF00" stroke-opacity="0.6" stroke-width="0.5" stroke-linecap="round" stroke-linejoin="round"/>
<path id="Finis" fill-rule="evenodd" clip-rule="evenodd" d="M0.25 222.25L40.2497 291.625H246.734L260.761 277.75L71.2495 98.25L0.25 222.25Z" fill="black" fill-opacity="0.6" stroke="#00FF00" stroke-opacity="0.6" stroke-width="0.5" stroke-linecap="round" stroke-linejoin="round"/>
<path id="Dormio" fill-rule="evenodd" clip-rule="evenodd" d="M310.246 250.25L436.245 357.25L514.248 222.248L465.245 138.25L316.861 243.061L310.246 250.25Z" fill="black" fill-opacity="0.6" stroke="#00FF00" stroke-opacity="0.6" stroke-width="0.5" stroke-linecap="round" stroke-linejoin="round"/>
<path id="WorldStar" fill-rule="evenodd" clip-rule="evenodd" d="M246.727 291.621V444.246H386.249L436.249 357.25L310.25 250.25L260.754 277.746L246.727 291.621Z" fill="black" fill-opacity="0.6" stroke="#00FF00" stroke-opacity="0.6" stroke-width="0.5" stroke-linecap="round" stroke-linejoin="round"/>
<path id="Teichotima" fill-rule="evenodd" clip-rule="evenodd" d="M40.25 291.625L128.249 444.249H246.729V291.625H40.25Z" fill="black" fill-opacity="0.6" stroke="#00FF00" stroke-opacity="0.6" stroke-width="0.5" stroke-linecap="round" stroke-linejoin="round"/>
</g>
</g>
</svg>
