<svg width="515" height="445" viewBox="0 0 515 445" fill="none" xmlns="http://www.w3.org/2000/svg">
<g id="ReachingTrail">
<g id="Territories">
<path id="LimestoneHoldfast" fill-rule="evenodd" clip-rule="evenodd" d="M73.25 94.25L153.467 139L326.437 0.25H127.25L73.25 94.25Z" fill="black" fill-opacity="0.6" stroke="#00FF00" stroke-opacity="0.6" stroke-width="0.5" stroke-linecap="round" stroke-linejoin="round"/>
<path id="Brodytown" fill-rule="evenodd" clip-rule="evenodd" d="M153.477 139V159.812L264.178 222.249L278.016 215.312L340.285 0.25H326.447L153.477 139Z" fill="black" fill-opacity="0.6" stroke="#00FF00" stroke-opacity="0.6" stroke-width="0.5" stroke-linecap="round" stroke-linejoin="round"/>
<path id="Dwyerstown" fill-rule="evenodd" clip-rule="evenodd" d="M0.25 222.248L40.2497 291.25L153.464 159.81V138.998L73.2495 94.25L0.25 222.248Z" fill="black" fill-opacity="0.6" stroke="#00FF00" stroke-opacity="0.6" stroke-width="0.5" stroke-linecap="round" stroke-linejoin="round"/>
<path id="IceRanch" fill-rule="evenodd" clip-rule="evenodd" d="M278.004 215.312L298.76 222.249L395.624 208.374L468.245 143.25L385.245 0.25H340.273L278.004 215.312Z" fill="black" fill-opacity="0.6" stroke="#00FF00" stroke-opacity="0.6" stroke-width="0.5" stroke-linecap="round" stroke-linejoin="round"/>
<path id="Elksford" fill-rule="evenodd" clip-rule="evenodd" d="M40.25 291.25L44.25 298.25L215.744 270.81L264.176 222.248L153.475 159.811L40.25 291.25Z" fill="black" fill-opacity="0.6" stroke="#00FF00" stroke-opacity="0.6" stroke-width="0.5" stroke-linecap="round" stroke-linejoin="round"/>
<path id="Mousetrap" fill-rule="evenodd" clip-rule="evenodd" d="M395.629 208.375L423.304 319.374L454.246 326.25L514.249 222.25L468.246 143.25L395.629 208.375Z" fill="black" fill-opacity="0.6" stroke="#00FF00" stroke-opacity="0.6" stroke-width="0.5" stroke-linecap="round" stroke-linejoin="round"/>
<path id="TheArk" fill-rule="evenodd" clip-rule="evenodd" d="M298.754 222.25L354.105 312.436L423.293 319.374L395.618 208.375L298.754 222.25Z" fill="black" fill-opacity="0.6" stroke="#00FF00" stroke-opacity="0.6" stroke-width="0.5" stroke-linecap="round" stroke-linejoin="round"/>
<path id="Reprieve" fill-rule="evenodd" clip-rule="evenodd" d="M215.742 270.81L257.255 354.06L284.931 367.935L354.119 312.435L298.768 222.248L278.25 215.25L264.174 222.248L215.742 270.81Z" fill="black" fill-opacity="0.6" stroke="#00FF00" stroke-opacity="0.6" stroke-width="0.5" stroke-linecap="round" stroke-linejoin="round"/>
<path id="Nightchurch" fill-rule="evenodd" clip-rule="evenodd" d="M44.25 298.25L104.25 402.25L257.252 354.056L215.739 270.807L44.25 298.25Z" fill="black" fill-opacity="0.6" stroke="#00FF00" stroke-opacity="0.6" stroke-width="0.5" stroke-linecap="round" stroke-linejoin="round"/>
<path id="FortMacConaill" fill-rule="evenodd" clip-rule="evenodd" d="M284.926 367.937L312.601 444.25H386.245L454.245 326.25L423.245 319.25L354.114 312.438L284.926 367.937Z" fill="black" fill-opacity="0.6" stroke="#00FF00" stroke-opacity="0.6" stroke-width="0.5" stroke-linecap="round" stroke-linejoin="round"/>
<path id="Harpy" fill-rule="evenodd" clip-rule="evenodd" d="M104.25 402.25L128.25 444.245H312.604L284.929 367.933L257.253 354.059L104.25 402.25Z" fill="black" fill-opacity="0.6" stroke="#00FF00" stroke-opacity="0.6" stroke-width="0.5" stroke-linecap="round" stroke-linejoin="round"/>
</g>
</g>
</svg>
