<svg width="515" height="445" viewBox="0 0 515 445" fill="none" xmlns="http://www.w3.org/2000/svg">
<g id="ReaversPass">
<g id="Territories">
<path id="TheBilge" fill-rule="evenodd" clip-rule="evenodd" d="M190.609 0.25L246.25 173.25L254.25 180.25L434.249 85.2498L385.25 0.25H190.609Z" fill="black" fill-opacity="0.6" stroke="#00FF00" stroke-opacity="0.6" stroke-width="0.5" stroke-linecap="round" stroke-linejoin="round"/>
<path id="FortRictus" fill-rule="evenodd" clip-rule="evenodd" d="M48.25 139.25L246.25 173.25L190.603 0.25H128.25L48.25 139.25Z" fill="black" fill-opacity="0.6" stroke="#00FF00" stroke-opacity="0.6" stroke-width="0.5" stroke-linecap="round" stroke-linejoin="round"/>
<path id="Scuttletown" fill-rule="evenodd" clip-rule="evenodd" d="M0.25 222.254L56.3599 319.379L106.456 312.441L253.745 215.317L254.249 180.251L246.249 173.251L48.2499 139.251L0.25 222.254Z" fill="black" fill-opacity="0.6" stroke="#00FF00" stroke-opacity="0.6" stroke-width="0.5" stroke-linecap="round" stroke-linejoin="round"/>
<path id="Breakwater" fill-rule="evenodd" clip-rule="evenodd" d="M253.742 215.313L302.838 277.75L465.25 306.249L514.251 222.251L434.25 85.25L254.25 180.25L253.742 215.313Z" fill="black" fill-opacity="0.6" stroke="#00FF00" stroke-opacity="0.6" stroke-width="0.5" stroke-linecap="round" stroke-linejoin="round"/>
<path id="Keelhaul" fill-rule="evenodd" clip-rule="evenodd" d="M106.453 312.44L260.755 381.814L302.838 277.752L253.742 215.315L106.453 312.44Z" fill="black" fill-opacity="0.6" stroke="#00FF00" stroke-opacity="0.6" stroke-width="0.5" stroke-linecap="round" stroke-linejoin="round"/>
<path id="ClayCoffer" fill-rule="evenodd" clip-rule="evenodd" d="M260.75 381.812L274.777 444.249H386.25L466.25 305.25L302.832 277.75L260.75 381.812Z" fill="black" fill-opacity="0.6" stroke="#00FF00" stroke-opacity="0.6" stroke-width="0.5" stroke-linecap="round" stroke-linejoin="round"/>
<path id="ThimbleBase" fill-rule="evenodd" clip-rule="evenodd" d="M56.3516 319.375L128.523 444.249H274.778L260.75 381.812L106.448 312.438L56.3516 319.375Z" fill="black" fill-opacity="0.6" stroke="#00FF00" stroke-opacity="0.6" stroke-width="0.5" stroke-linecap="round" stroke-linejoin="round"/>
</g>
</g>
</svg>
