<svg width="515" height="445" viewBox="0 0 515 445" fill="none" xmlns="http://www.w3.org/2000/svg">
<g id="RedRiver">
<g id="Territories">
<path id="Climb" fill-rule="evenodd" clip-rule="evenodd" d="M302.312 0.25L316.375 113.012L450.25 112.012L385.25 0.25H302.312Z" fill="black" fill-opacity="0.6" stroke="#00FF00" stroke-opacity="0.6" stroke-width="0.5" stroke-linecap="round" stroke-linejoin="round"/>
<path id="Penance" fill-rule="evenodd" clip-rule="evenodd" d="M147.625 0.25L210.905 134.155L316.373 113.012L302.31 0.25H147.625Z" fill="black" fill-opacity="0.6" stroke="#00FF00" stroke-opacity="0.6" stroke-width="0.5" stroke-linecap="round" stroke-linejoin="round"/>
<path id="CampUpsilon" fill-rule="evenodd" clip-rule="evenodd" d="M0.25 222.25L203.87 148.25L210.901 134.155L147.621 0.25H128.25L0.25 222.25Z" fill="black" fill-opacity="0.6" stroke="#00FF00" stroke-opacity="0.6" stroke-width="0.5" stroke-linecap="round" stroke-linejoin="round"/>
<path id="Judicium" fill-rule="evenodd" clip-rule="evenodd" d="M316.383 113.01L330.445 218.724L491.25 183.25L450.25 112.01L316.383 113.01Z" fill="black" fill-opacity="0.6" stroke="#00FF00" stroke-opacity="0.6" stroke-width="0.5" stroke-linecap="round" stroke-linejoin="round"/>
<path id="FortMatchwood" fill-rule="evenodd" clip-rule="evenodd" d="M203.875 148.248L253.093 232.819L302.311 246.915L330.436 218.724L316.373 113.01L210.906 134.153L203.875 148.248Z" fill="black" fill-opacity="0.6" stroke="#00FF00" stroke-opacity="0.6" stroke-width="0.5" stroke-linecap="round" stroke-linejoin="round"/>
<path id="Minos" fill-rule="evenodd" clip-rule="evenodd" d="M0.25 222.25L51.25 310.25L253.088 232.818L203.87 148.246L0.25 222.25Z" fill="black" fill-opacity="0.6" stroke="#00FF00" stroke-opacity="0.6" stroke-width="0.5" stroke-linecap="round" stroke-linejoin="round"/>
<path id="VictoriaHill" fill-rule="evenodd" clip-rule="evenodd" d="M302.312 246.915L358.562 444.248H386.25L514.25 222.25L491.25 183.25L330.437 218.724L302.312 246.915Z" fill="black" fill-opacity="0.6" stroke="#00FF00" stroke-opacity="0.6" stroke-width="0.5" stroke-linecap="round" stroke-linejoin="round"/>
<path id="Cannonsmoke" fill-rule="evenodd" clip-rule="evenodd" d="M51.25 310.25L128.573 444.25H358.565L302.315 246.916L253.097 232.82L51.25 310.25Z" fill="black" fill-opacity="0.6" stroke="#00FF00" stroke-opacity="0.6" stroke-width="0.5" stroke-linecap="round" stroke-linejoin="round"/>
</g>
</g>
</svg>
