<svg width="515" height="445" viewBox="0 0 515 445" fill="none" xmlns="http://www.w3.org/2000/svg">
<g id="Sableport">
<g id="Territories">
<path id="Talonsfort" fill-rule="evenodd" clip-rule="evenodd" d="M59.3672 120.06L155.558 127.108L331.249 14.25L344.926 0.25H128.504L59.3672 120.06Z" fill="black" fill-opacity="0.6" stroke="#00FF00" stroke-opacity="0.6" stroke-width="0.5" stroke-linecap="round" stroke-linejoin="round"/>
<path id="Cinderwick" fill-rule="evenodd" clip-rule="evenodd" d="M155.555 127.104L273.25 219.249L283.25 216.249L330.896 14.3418L155.555 127.104Z" fill="black" fill-opacity="0.6" stroke="#00FF00" stroke-opacity="0.6" stroke-width="0.5" stroke-linecap="round" stroke-linejoin="round"/>
<path id="ThePendant" fill-rule="evenodd" clip-rule="evenodd" d="M283.25 216.249L295.25 218.249L492.198 184.489L385.994 0.25H344.912L330.884 14.3453L283.25 216.249Z" fill="black" fill-opacity="0.6" stroke="#00FF00" stroke-opacity="0.6" stroke-width="0.5" stroke-linecap="round" stroke-linejoin="round"/>
<path id="TheWhetstone" fill-rule="evenodd" clip-rule="evenodd" d="M0.25 222.726L34.3045 281.155L246.727 253.964L273.249 219.25L155.55 127.106L59.3591 120.059L0.25 222.726Z" fill="black" fill-opacity="0.6" stroke="#00FF00" stroke-opacity="0.6" stroke-width="0.5" stroke-linecap="round" stroke-linejoin="round"/>
<path id="TheRobinsNest" fill-rule="evenodd" clip-rule="evenodd" d="M295.25 218.25L428.087 371.777L514.251 221.729L492.21 184.49L295.25 218.25Z" fill="black" fill-opacity="0.6" stroke="#00FF00" stroke-opacity="0.6" stroke-width="0.5" stroke-linecap="round" stroke-linejoin="round"/>
<path id="LightsEnd" fill-rule="evenodd" clip-rule="evenodd" d="M34.3047 281.154L128.496 444.25H246.727V253.963L34.3047 281.154Z" fill="black" fill-opacity="0.6" stroke="#00FF00" stroke-opacity="0.6" stroke-width="0.5" stroke-linecap="round" stroke-linejoin="round"/>
<path id="Barronhome" fill-rule="evenodd" clip-rule="evenodd" d="M246.719 444.25H385.991L428.073 371.773L295.25 218.25L283.25 216.25L273.25 219.25L246.719 253.963V444.25Z" fill="black" fill-opacity="0.6" stroke="#00FF00" stroke-opacity="0.6" stroke-width="0.5" stroke-linecap="round" stroke-linejoin="round"/>
</g>
</g>
</svg>
