<svg width="515" height="445" viewBox="0 0 515 445" fill="none" xmlns="http://www.w3.org/2000/svg">
<g id="ShackledChasm">
<g id="Territories">
<path id="TheGraveofErastos" fill-rule="evenodd" clip-rule="evenodd" d="M260.766 0.25L274.793 118.189L379.997 125.126L435.249 86.2497L385.25 0.25H260.766Z" fill="black" fill-opacity="0.6" stroke="#00FF00" stroke-opacity="0.6" stroke-width="0.5" stroke-linecap="round" stroke-linejoin="round"/>
<path id="Savages" fill-rule="evenodd" clip-rule="evenodd" d="M89.25 67.2498L197.634 152.877L246.73 145.939L274.784 118.189L260.757 0.25H128.25L89.25 67.2498Z" fill="black" fill-opacity="0.6" stroke="#00FF00" stroke-opacity="0.6" stroke-width="0.5" stroke-linecap="round" stroke-linejoin="round"/>
<path id="GorgonGrove" fill-rule="evenodd" clip-rule="evenodd" d="M0.25 222.25L162.573 215.31L197.641 152.872L89.2497 67.25L0.25 222.25Z" fill="black" fill-opacity="0.6" stroke="#00FF00" stroke-opacity="0.6" stroke-width="0.5" stroke-linecap="round" stroke-linejoin="round"/>
<path id="TheBellToll" fill-rule="evenodd" clip-rule="evenodd" d="M246.727 145.934L309.849 229.185L379.986 215.31V125.121L274.781 118.184L246.727 145.934Z" fill="black" fill-opacity="0.6" stroke="#00FF00" stroke-opacity="0.6" stroke-width="0.5" stroke-linecap="round" stroke-linejoin="round"/>
<path id="Firstmarch" fill-rule="evenodd" clip-rule="evenodd" d="M379.992 215.308L486.197 270.809L514.251 222.246L435.25 86.25L379.992 125.12V215.308Z" fill="black" fill-opacity="0.6" stroke="#00FF00" stroke-opacity="0.6" stroke-width="0.5" stroke-linecap="round" stroke-linejoin="round"/>
<path id="LimewoodHoldfast" fill-rule="evenodd" clip-rule="evenodd" d="M162.562 215.311L183.603 243.062L288.808 263.874L309.849 229.186L246.726 145.936L197.631 152.873L162.562 215.311Z" fill="black" fill-opacity="0.6" stroke="#00FF00" stroke-opacity="0.6" stroke-width="0.5" stroke-linecap="round" stroke-linejoin="round"/>
<path id="Reflection" fill-rule="evenodd" clip-rule="evenodd" d="M0.25 222.245L124.25 437.248L183.604 243.058L162.564 215.308L0.25 222.245Z" fill="black" fill-opacity="0.6" stroke="#00FF00" stroke-opacity="0.6" stroke-width="0.5" stroke-linecap="round" stroke-linejoin="round"/>
<path id="TheVanguard" fill-rule="evenodd" clip-rule="evenodd" d="M288.805 263.871L302.832 333.246L458.132 319.371L486.186 270.808L379.982 215.308L309.846 229.183L288.805 263.871Z" fill="black" fill-opacity="0.6" stroke="#00FF00" stroke-opacity="0.6" stroke-width="0.5" stroke-linecap="round" stroke-linejoin="round"/>
<path id="SilkFarms" fill-rule="evenodd" clip-rule="evenodd" d="M124.25 437.248L128.25 444.249H211.664L302.841 333.248L288.814 263.872L183.609 243.06L124.25 437.248Z" fill="black" fill-opacity="0.6" stroke="#00FF00" stroke-opacity="0.6" stroke-width="0.5" stroke-linecap="round" stroke-linejoin="round"/>
<path id="SimosRun" fill-rule="evenodd" clip-rule="evenodd" d="M211.648 444.247H386.249L458.126 319.371L302.826 333.246L211.648 444.247Z" fill="black" fill-opacity="0.6" stroke="#00FF00" stroke-opacity="0.6" stroke-width="0.5" stroke-linecap="round" stroke-linejoin="round"/>
</g>
</g>
</svg>
