<svg width="515" height="445" viewBox="0 0 515 445" fill="none" xmlns="http://www.w3.org/2000/svg">
<g id="SpeakingWoods">
<g id="Territories">
<path id="InariBase" fill-rule="evenodd" clip-rule="evenodd" d="M281.805 0.25L302.845 77.7735L401.035 141.202L454.25 118.25L385.25 0.25H281.805Z" fill="black" fill-opacity="0.6" stroke="#00FF00" stroke-opacity="0.6" stroke-width="0.5" stroke-linecap="round" stroke-linejoin="round"/>
<path id="Hush" fill-rule="evenodd" clip-rule="evenodd" d="M74.75 93.25L232.695 176.44L302.83 77.7735L281.79 0.25H128.25L74.75 93.25Z" fill="black" fill-opacity="0.6" stroke="#00FF00" stroke-opacity="0.6" stroke-width="0.5" stroke-linecap="round" stroke-linejoin="round"/>
<path id="Tine" fill-rule="evenodd" clip-rule="evenodd" d="M232.711 176.442L365.969 204.632L401.036 141.204L302.847 77.7754L232.711 176.442Z" fill="black" fill-opacity="0.6" stroke="#00FF00" stroke-opacity="0.6" stroke-width="0.5" stroke-linecap="round" stroke-linejoin="round"/>
<path id="Wound" fill-rule="evenodd" clip-rule="evenodd" d="M365.969 204.632L387.009 268.06L472.25 295.25L514.25 222.25L454.25 118.25L401.037 141.203L365.969 204.632Z" fill="black" fill-opacity="0.6" stroke="#00FF00" stroke-opacity="0.6" stroke-width="0.5" stroke-linecap="round" stroke-linejoin="round"/>
<path id="TheFilament" fill-rule="evenodd" clip-rule="evenodd" d="M0.25 222.25L47.25 303.25L211.657 253.962L232.698 176.438L74.75 93.25L0.25 222.25Z" fill="black" fill-opacity="0.6" stroke="#00FF00" stroke-opacity="0.6" stroke-width="0.5" stroke-linecap="round" stroke-linejoin="round"/>
<path id="SottoBank" fill-rule="evenodd" clip-rule="evenodd" d="M211.672 253.965L295.835 324.441L387.011 268.06L365.97 204.632L232.713 176.441L211.672 253.965Z" fill="black" fill-opacity="0.6" stroke="#00FF00" stroke-opacity="0.6" stroke-width="0.5" stroke-linecap="round" stroke-linejoin="round"/>
<path id="Stem" fill-rule="evenodd" clip-rule="evenodd" d="M47.25 303.25L128.25 444.25H260.749L295.816 324.441L211.654 253.965L47.25 303.25Z" fill="black" fill-opacity="0.6" stroke="#00FF00" stroke-opacity="0.6" stroke-width="0.5" stroke-linecap="round" stroke-linejoin="round"/>
<path id="FortBlather" fill-rule="evenodd" clip-rule="evenodd" d="M260.758 444.248H386.25L472.25 295.25L387.002 268.059L295.826 324.439L260.758 444.248Z" fill="black" fill-opacity="0.6" stroke="#00FF00" stroke-opacity="0.6" stroke-width="0.5" stroke-linecap="round" stroke-linejoin="round"/>
</g>
</g>
</svg>
