<svg width="515" height="445" viewBox="0 0 515 445" fill="none" xmlns="http://www.w3.org/2000/svg">
<g id="StemaLanding">
<g id="Territories">
<path id="AciesOverlook" fill-rule="evenodd" clip-rule="evenodd" d="M204.648 0.25L232.704 134.154L427.093 71.7259L386.01 0.25H204.648Z" fill="black" fill-opacity="0.6" stroke="#00FF00" stroke-opacity="0.6" stroke-width="0.5" stroke-linecap="round" stroke-linejoin="round"/>
<path id="TheFlair" fill-rule="evenodd" clip-rule="evenodd" d="M59.3516 120.059L176.588 176.44L225.685 155.297L232.699 134.154L204.644 0.25H128.491L59.3516 120.059Z" fill="black" fill-opacity="0.6" stroke="#00FF00" stroke-opacity="0.6" stroke-width="0.5" stroke-linecap="round" stroke-linejoin="round"/>
<path id="TheSpearhead" fill-rule="evenodd" clip-rule="evenodd" d="M225.672 155.3L309.839 218.728L351.922 211.68L456.131 122.062L427.075 71.7285L232.686 134.157L225.672 155.3Z" fill="black" fill-opacity="0.6" stroke="#00FF00" stroke-opacity="0.6" stroke-width="0.5" stroke-linecap="round" stroke-linejoin="round"/>
<path id="VergeWing" fill-rule="evenodd" clip-rule="evenodd" d="M0.25 221.727L63.3751 331.488L148.542 289.203L176.598 176.441L59.3612 120.061L0.25 221.727Z" fill="black" fill-opacity="0.6" stroke="#00FF00" stroke-opacity="0.6" stroke-width="0.5" stroke-linecap="round" stroke-linejoin="round"/>
<path id="Ustio" fill-rule="evenodd" clip-rule="evenodd" d="M148.547 289.201L246.742 303.296L309.867 218.725L225.7 155.297L176.602 176.44L148.547 289.201Z" fill="black" fill-opacity="0.6" stroke="#00FF00" stroke-opacity="0.6" stroke-width="0.5" stroke-linecap="round" stroke-linejoin="round"/>
<path id="BaseSagitta" fill-rule="evenodd" clip-rule="evenodd" d="M351.93 211.679L408.041 324.441L443.11 345.583L514.249 221.727L456.138 122.061L351.93 211.679Z" fill="black" fill-opacity="0.6" stroke="#00FF00" stroke-opacity="0.6" stroke-width="0.5" stroke-linecap="round" stroke-linejoin="round"/>
<path id="BaseFerveret" fill-rule="evenodd" clip-rule="evenodd" d="M246.727 303.294L267.768 331.485L408.046 324.437L351.935 211.676L309.852 218.723L246.727 303.294Z" fill="black" fill-opacity="0.6" stroke="#00FF00" stroke-opacity="0.6" stroke-width="0.5" stroke-linecap="round" stroke-linejoin="round"/>
<path id="AlchimioEstate" fill-rule="evenodd" clip-rule="evenodd" d="M63.3672 331.487L128.492 444.248H267.77V331.487L246.729 303.296L148.534 289.201L63.3672 331.487Z" fill="black" fill-opacity="0.6" stroke="#00FF00" stroke-opacity="0.6" stroke-width="0.5" stroke-linecap="round" stroke-linejoin="round"/>
<path id="TheWane" fill-rule="evenodd" clip-rule="evenodd" d="M267.773 444.25H386.01L443.121 345.584L408.052 324.441L267.773 331.489V444.25Z" fill="black" fill-opacity="0.6" stroke="#00FF00" stroke-opacity="0.6" stroke-width="0.5" stroke-linecap="round" stroke-linejoin="round"/>
</g>
</g>
</svg>
