<svg width="515" height="445" viewBox="0 0 515 445" fill="none" xmlns="http://www.w3.org/2000/svg">
<g id="StlicanShelf">
<g id="Territories">
<path id="Briar" fill-rule="evenodd" clip-rule="evenodd" d="M66.3711 106.964L141.522 148.249L253.742 141.202L302.838 0.25H128.495L66.3711 106.964Z" fill="black" fill-opacity="0.6" stroke="#00FF00" stroke-opacity="0.6" stroke-width="0.5" stroke-linecap="round" stroke-linejoin="round"/>
<path id="PortofRime" fill-rule="evenodd" clip-rule="evenodd" d="M253.742 141.202L274.783 190.535L503.223 240.868L514.25 221.725L386.003 0.25H302.838L253.742 141.202Z" fill="black" fill-opacity="0.6" stroke="#00FF00" stroke-opacity="0.6" stroke-width="0.5" stroke-linecap="round" stroke-linejoin="round"/>
<path id="ThePaleHouse" fill-rule="evenodd" clip-rule="evenodd" d="M0.25 221.725L19.2912 254.963L141.525 218.725V148.249L66.3736 106.964L0.25 221.725Z" fill="black" fill-opacity="0.6" stroke="#00FF00" stroke-opacity="0.6" stroke-width="0.5" stroke-linecap="round" stroke-linejoin="round"/>
<path id="BreakerTown" fill-rule="evenodd" clip-rule="evenodd" d="M141.523 218.727L197.633 261.012L232.702 253.965L274.784 190.536L253.743 141.203L141.523 148.251V218.727Z" fill="black" fill-opacity="0.6" stroke="#00FF00" stroke-opacity="0.6" stroke-width="0.5" stroke-linecap="round" stroke-linejoin="round"/>
<path id="FortHoarfrost" fill-rule="evenodd" clip-rule="evenodd" d="M232.688 253.965L288.797 317.394H459.127L503.209 240.87L274.77 190.537L232.688 253.965Z" fill="black" fill-opacity="0.6" stroke="#00FF00" stroke-opacity="0.6" stroke-width="0.5" stroke-linecap="round" stroke-linejoin="round"/>
<path id="Thornhold" fill-rule="evenodd" clip-rule="evenodd" d="M19.2891 254.965L59.3577 324.44L169.577 289.202L197.632 261.012L141.522 218.727L19.2891 254.965Z" fill="black" fill-opacity="0.6" stroke="#00FF00" stroke-opacity="0.6" stroke-width="0.5" stroke-linecap="round" stroke-linejoin="round"/>
<path id="VulpineWatch" fill-rule="evenodd" clip-rule="evenodd" d="M169.566 289.203L214.25 425.75L288.8 317.393L232.69 253.965L197.621 261.012L169.566 289.203Z" fill="black" fill-opacity="0.6" stroke="#00FF00" stroke-opacity="0.6" stroke-width="0.5" stroke-linecap="round" stroke-linejoin="round"/>
<path id="TheOldMourn" fill-rule="evenodd" clip-rule="evenodd" d="M59.3516 324.441L128.489 444.25H211.654L214.25 426.25L169.571 289.203L59.3516 324.441Z" fill="black" fill-opacity="0.6" stroke="#00FF00" stroke-opacity="0.6" stroke-width="0.5" stroke-linecap="round" stroke-linejoin="round"/>
<path id="TheSouthWind" fill-rule="evenodd" clip-rule="evenodd" d="M211.664 444.25H386.007L459.145 317.394H288.815L214.25 425.75L211.664 444.25Z" fill="black" fill-opacity="0.6" stroke="#00FF00" stroke-opacity="0.6" stroke-width="0.5" stroke-linecap="round" stroke-linejoin="round"/>
</g>
</g>
</svg>
