<svg width="515" height="445" viewBox="0 0 515 445" fill="none" xmlns="http://www.w3.org/2000/svg">
<g id="Stonecradle">
<g id="Territories">
<path id="TheDais" fill-rule="evenodd" clip-rule="evenodd" d="M92.4414 62.6784L169.593 120.059L260.772 134.154L395.034 16.3452L386.02 0.25H128.51L92.4414 62.6784Z" fill="black" fill-opacity="0.6" stroke="#00FF00" stroke-opacity="0.6" stroke-width="0.5" stroke-linecap="round" stroke-linejoin="round"/>
<path id="TheReach" fill-rule="evenodd" clip-rule="evenodd" d="M260.762 134.152L316.872 162.342L459.148 127.104L395.024 16.3428L260.762 134.152Z" fill="black" fill-opacity="0.6" stroke="#00FF00" stroke-opacity="0.6" stroke-width="0.5" stroke-linecap="round" stroke-linejoin="round"/>
<path id="TrammelPool" fill-rule="evenodd" clip-rule="evenodd" d="M316.863 162.343L337.905 246.915L483.194 276.105L514.249 221.772L459.139 127.105L316.863 162.343Z" fill="black" fill-opacity="0.6" stroke="#00FF00" stroke-opacity="0.6" stroke-width="0.5" stroke-linecap="round" stroke-linejoin="round"/>
<path id="BucklerSound" fill-rule="evenodd" clip-rule="evenodd" d="M169.57 120.062L191.25 284.25L197.625 289.204L330.75 254.25L337.901 246.918L316.86 162.347L260.75 134.157L169.57 120.062Z" fill="black" fill-opacity="0.6" stroke="#00FF00" stroke-opacity="0.6" stroke-width="0.5" stroke-linecap="round" stroke-linejoin="round"/>
<path id="WorldsEnd" fill-rule="evenodd" clip-rule="evenodd" d="M0.25 221.773L54.75 316.25L191.25 284.25L169.581 120.059L92.4292 62.6777L0.25 221.773Z" fill="black" fill-opacity="0.6" stroke="#00FF00" stroke-opacity="0.6" stroke-width="0.5" stroke-linecap="round" stroke-linejoin="round"/>
<path id="FadingLights" fill-rule="evenodd" clip-rule="evenodd" d="M330.898 253.965V409.012L358.954 444.25H386.009L483.202 276.107L337.912 246.917L330.898 253.965Z" fill="black" fill-opacity="0.6" stroke="#00FF00" stroke-opacity="0.6" stroke-width="0.5" stroke-linecap="round" stroke-linejoin="round"/>
<path id="TheCord" fill-rule="evenodd" clip-rule="evenodd" d="M197.641 289.2L211.668 331.486L330.903 409.009V253.962L197.641 289.2Z" fill="black" fill-opacity="0.6" stroke="#00FF00" stroke-opacity="0.6" stroke-width="0.5" stroke-linecap="round" stroke-linejoin="round"/>
<path id="TheHeirsKnife" fill-rule="evenodd" clip-rule="evenodd" d="M54.75 316.25L128.25 444.25L211.665 331.488L197.75 289.25L191.25 284.25L54.75 316.25Z" fill="black" fill-opacity="0.6" stroke="#00FF00" stroke-opacity="0.6" stroke-width="0.5" stroke-linecap="round" stroke-linejoin="round"/>
<path id="TheLongFast" fill-rule="evenodd" clip-rule="evenodd" d="M128.25 444.248H358.953L330.898 409.01L211.664 331.486L128.25 444.248Z" fill="black" fill-opacity="0.6" stroke="#00FF00" stroke-opacity="0.6" stroke-width="0.5" stroke-linecap="round" stroke-linejoin="round"/>
</g>
</g>
</svg>
