<svg width="515" height="445" viewBox="0 0 515 445" fill="none" xmlns="http://www.w3.org/2000/svg">
<g id="TempestIsland">
<g id="Territories">
<path id="Reef" fill-rule="evenodd" clip-rule="evenodd" d="M281.809 0.25L323.892 166.751L372.989 187.563L445.128 103.313L386.017 0.25H281.809Z" fill="black" fill-opacity="0.6" stroke="#00FF00" stroke-opacity="0.6" stroke-width="0.5" stroke-linecap="round" stroke-linejoin="round"/>
<path id="TheRush" fill-rule="evenodd" clip-rule="evenodd" d="M102.465 44.8127L267.785 201.438L323.896 166.751L281.812 0.25H128.507L102.465 44.8127Z" fill="black" fill-opacity="0.6" stroke="#00FF00" stroke-opacity="0.6" stroke-width="0.5" stroke-linecap="round" stroke-linejoin="round"/>
<path id="Blackwatch" fill-rule="evenodd" clip-rule="evenodd" d="M372.973 187.564L394.014 229.189L478.181 284.689L514.251 222.251L445.112 103.313L372.973 187.564Z" fill="black" fill-opacity="0.6" stroke="#00FF00" stroke-opacity="0.6" stroke-width="0.5" stroke-linecap="round" stroke-linejoin="round"/>
<path id="SurgeGate" fill-rule="evenodd" clip-rule="evenodd" d="M98.4492 51.7491L162.574 277.75L197.644 284.687L253.755 256.937L267.783 201.437L102.463 44.8115L98.4492 51.7491Z" fill="black" fill-opacity="0.6" stroke="#00FF00" stroke-opacity="0.6" stroke-width="0.5" stroke-linecap="round" stroke-linejoin="round"/>
<path id="TheIris" fill-rule="evenodd" clip-rule="evenodd" d="M253.75 256.938L288.82 263.875L394.028 229.188L372.986 187.563L323.889 166.75L267.778 201.438L253.75 256.938Z" fill="black" fill-opacity="0.6" stroke="#00FF00" stroke-opacity="0.6" stroke-width="0.5" stroke-linecap="round" stroke-linejoin="round"/>
<path id="IsleofPsyche" fill-rule="evenodd" clip-rule="evenodd" d="M0.25 222.25L61.3751 328.313L162.57 277.75L98.4446 51.749L0.25 222.25Z" fill="black" fill-opacity="0.6" stroke="#00FF00" stroke-opacity="0.6" stroke-width="0.5" stroke-linecap="round" stroke-linejoin="round"/>
<path id="LiarsHaven" fill-rule="evenodd" clip-rule="evenodd" d="M288.824 263.875L401.047 418.501L478.2 284.688L394.033 229.188L288.824 263.875Z" fill="black" fill-opacity="0.6" stroke="#00FF00" stroke-opacity="0.6" stroke-width="0.5" stroke-linecap="round" stroke-linejoin="round"/>
<path id="TheGale" fill-rule="evenodd" clip-rule="evenodd" d="M197.633 284.687L281.8 444.25H386.008L401.036 418.5L288.814 263.874L253.744 256.937L197.633 284.687Z" fill="black" fill-opacity="0.6" stroke="#00FF00" stroke-opacity="0.6" stroke-width="0.5" stroke-linecap="round" stroke-linejoin="round"/>
<path id="PlanaFada" fill-rule="evenodd" clip-rule="evenodd" d="M61.3711 328.312L128.496 444.25H281.802L197.635 284.687L162.566 277.749L61.3711 328.312Z" fill="black" fill-opacity="0.6" stroke="#00FF00" stroke-opacity="0.6" stroke-width="0.5" stroke-linecap="round" stroke-linejoin="round"/>
</g>
</g>
</svg>
