<svg width="515" height="445" viewBox="0 0 515 445" fill="none" xmlns="http://www.w3.org/2000/svg">
<g id="Terminus">
<g id="Territories">
<path id="Thunderbolt" fill-rule="evenodd" clip-rule="evenodd" d="M84.25 76.25L267.78 132.062L330.25 0.25H128.25L84.25 76.25Z" fill="black" fill-opacity="0.6" stroke="#00FF00" stroke-opacity="0.6" stroke-width="0.5" stroke-linecap="round" stroke-linejoin="round"/>
<path id="WindingBolas" fill-rule="evenodd" clip-rule="evenodd" d="M267.781 132.062L274.795 201.437L295.836 215.312L478.25 160.25L385.25 0.25H330.25L267.781 132.062Z" fill="black" fill-opacity="0.6" stroke="#00FF00" stroke-opacity="0.6" stroke-width="0.5" stroke-linecap="round" stroke-linejoin="round"/>
<path id="WarlordsStead" fill-rule="evenodd" clip-rule="evenodd" d="M0.25 222.25L13.25 244.058L190.622 243.058L274.787 201.433L267.773 132.058L84.25 76.25L0.25 222.25Z" fill="black" fill-opacity="0.6" stroke="#00FF00" stroke-opacity="0.6" stroke-width="0.5" stroke-linecap="round" stroke-linejoin="round"/>
<path id="BloodyPalmFort" fill-rule="evenodd" clip-rule="evenodd" d="M295.82 215.312L414.25 395.25L514.25 222.25L478.25 160.25L295.82 215.312Z" fill="black" fill-opacity="0.6" stroke="#00FF00" stroke-opacity="0.6" stroke-width="0.5" stroke-linecap="round" stroke-linejoin="round"/>
<path id="CerberusWake" fill-rule="evenodd" clip-rule="evenodd" d="M12.25 243.06L128.25 444.246H176.606L190.633 243.06H12.25Z" fill="black" fill-opacity="0.6" stroke="#00FF00" stroke-opacity="0.6" stroke-width="0.5" stroke-linecap="round" stroke-linejoin="round"/>
<path id="Therizo" fill-rule="evenodd" clip-rule="evenodd" d="M176.594 444.251H386.25L414.25 395.25L295.828 215.314L274.787 201.439L190.621 243.064L176.594 444.251Z" fill="black" fill-opacity="0.6" stroke="#00FF00" stroke-opacity="0.6" stroke-width="0.5" stroke-linecap="round" stroke-linejoin="round"/>
</g>
</g>
</svg>
