<svg width="515" height="445" viewBox="0 0 515 445" fill="none" xmlns="http://www.w3.org/2000/svg">
<g id="TheFingers">
<g id="Territories">
<path id="TheTusk" fill-rule="evenodd" clip-rule="evenodd" d="M64.375 111.011L155.552 148.249L260.757 77.7734L274.784 0.25H128.498L64.375 111.011Z" fill="black" fill-opacity="0.6" stroke="#00FF00" stroke-opacity="0.6" stroke-width="0.5" stroke-linecap="round" stroke-linejoin="round"/>
<path id="CaptainsDread" fill-rule="evenodd" clip-rule="evenodd" d="M260.75 77.7734L316.859 169.392L372.968 190.535L474.159 153.297L385.995 0.25H274.777L260.75 77.7734Z" fill="black" fill-opacity="0.6" stroke="#00FF00" stroke-opacity="0.6" stroke-width="0.5" stroke-linecap="round" stroke-linejoin="round"/>
<path id="FortBarley" fill-rule="evenodd" clip-rule="evenodd" d="M155.562 148.243L176.603 211.672L225.699 225.767L316.876 169.386L260.767 77.7676L155.562 148.243Z" fill="black" fill-opacity="0.6" stroke="#00FF00" stroke-opacity="0.6" stroke-width="0.5" stroke-linecap="round" stroke-linejoin="round"/>
<path id="HeadsmansVilla" fill-rule="evenodd" clip-rule="evenodd" d="M0.25 221.724L50.75 309.25L176.591 211.676L155.55 148.248L64.3727 111.01L0.25 221.724Z" fill="black" fill-opacity="0.6" stroke="#00FF00" stroke-opacity="0.6" stroke-width="0.5" stroke-linecap="round" stroke-linejoin="round"/>
<path id="TethysBase" fill-rule="evenodd" clip-rule="evenodd" d="M225.695 225.769L260.763 310.34L351.941 317.388L372.982 190.531L316.873 169.389L225.695 225.769Z" fill="black" fill-opacity="0.6" stroke="#00FF00" stroke-opacity="0.6" stroke-width="0.5" stroke-linecap="round" stroke-linejoin="round"/>
<path id="TheOldCaptain" fill-rule="evenodd" clip-rule="evenodd" d="M351.938 317.391L427.087 372.772L514.251 221.725L474.169 153.297L372.978 190.535L351.938 317.391Z" fill="black" fill-opacity="0.6" stroke="#00FF00" stroke-opacity="0.6" stroke-width="0.5" stroke-linecap="round" stroke-linejoin="round"/>
<path id="Plankhouse" fill-rule="evenodd" clip-rule="evenodd" d="M50.75 309.25L55.25 317.25L232.69 331.489L260.745 310.346L225.677 225.775L176.581 211.68L50.75 309.25Z" fill="black" fill-opacity="0.6" stroke="#00FF00" stroke-opacity="0.6" stroke-width="0.5" stroke-linecap="round" stroke-linejoin="round"/>
<path id="SecondMan" fill-rule="evenodd" clip-rule="evenodd" d="M55.25 317.25L128.488 444.249H225.679L232.692 331.488L55.25 317.25Z" fill="black" fill-opacity="0.6" stroke="#00FF00" stroke-opacity="0.6" stroke-width="0.5" stroke-linecap="round" stroke-linejoin="round"/>
<path id="Titancall" fill-rule="evenodd" clip-rule="evenodd" d="M225.695 444.248H386.009L427.091 372.772L351.941 317.391L260.763 310.344L232.709 331.486L225.695 444.248Z" fill="black" fill-opacity="0.6" stroke="#00FF00" stroke-opacity="0.6" stroke-width="0.5" stroke-linecap="round" stroke-linejoin="round"/>
</g>
</g>
</svg>
