<svg width="515" height="445" viewBox="0 0 515 445" fill="none" xmlns="http://www.w3.org/2000/svg">
<g id="UmbralWildwood">
<g id="Territories">
<path id="VagrantBastion" fill-rule="evenodd" clip-rule="evenodd" d="M174.234 0.25L220.25 141.25L298.775 98.9159L312.613 0.25H174.234Z" fill="black" fill-opacity="0.6" stroke="#00FF00" stroke-opacity="0.6" stroke-width="0.5" stroke-linecap="round" stroke-linejoin="round"/>
<path id="Stray" fill-rule="evenodd" clip-rule="evenodd" d="M298.758 98.9159L374.866 127.106L438.137 90.8684L385.785 0.25H312.596L298.758 98.9159Z" fill="black" fill-opacity="0.6" stroke="#00FF00" stroke-opacity="0.6" stroke-width="0.5" stroke-linecap="round" stroke-linejoin="round"/>
<path id="TheFoundry" fill-rule="evenodd" clip-rule="evenodd" d="M42.7734 148.249L118.882 169.392L215.747 148.249L220.25 141.25L174.233 0.25H127.72L42.7734 148.249Z" fill="black" fill-opacity="0.6" stroke="#00FF00" stroke-opacity="0.6" stroke-width="0.5" stroke-linecap="round" stroke-linejoin="round"/>
<path id="ClothosRefuge" fill-rule="evenodd" clip-rule="evenodd" d="M215.734 148.247L271.086 218.723L347.194 204.628L374.87 127.104L298.762 98.9141L220.25 141.25L215.734 148.247Z" fill="black" fill-opacity="0.6" stroke="#00FF00" stroke-opacity="0.6" stroke-width="0.5" stroke-linecap="round" stroke-linejoin="round"/>
<path id="Amethyst" fill-rule="evenodd" clip-rule="evenodd" d="M347.195 204.626L367.952 211.674L499.412 196.579L438.142 90.8652L374.871 127.103L347.195 204.626Z" fill="black" fill-opacity="0.6" stroke="#00FF00" stroke-opacity="0.6" stroke-width="0.5" stroke-linecap="round" stroke-linejoin="round"/>
<path id="Thunderfoot" fill-rule="evenodd" clip-rule="evenodd" d="M118.883 169.391L146.559 303.295L229.586 289.199L250.343 275.104L271.1 218.724L215.748 148.248L118.883 169.391Z" fill="black" fill-opacity="0.6" stroke="#00FF00" stroke-opacity="0.6" stroke-width="0.5" stroke-linecap="round" stroke-linejoin="round"/>
<path id="LachesisTally" fill-rule="evenodd" clip-rule="evenodd" d="M367.953 211.677L438.143 353.628L514.251 221.725L499.413 196.582L367.953 211.677Z" fill="black" fill-opacity="0.6" stroke="#00FF00" stroke-opacity="0.6" stroke-width="0.5" stroke-linecap="round" stroke-linejoin="round"/>
<path id="GoldenrootRanch" fill-rule="evenodd" clip-rule="evenodd" d="M0.25 221.724L76.3584 353.627L146.548 303.295L118.872 169.391L42.7637 148.248L0.25 221.724Z" fill="black" fill-opacity="0.6" stroke="#00FF00" stroke-opacity="0.6" stroke-width="0.5" stroke-linecap="round" stroke-linejoin="round"/>
<path id="HermitsRest" fill-rule="evenodd" clip-rule="evenodd" d="M250.336 275.107L431.228 366.725L438.147 353.63L367.958 211.678L347.201 204.631L271.093 218.726L250.336 275.107Z" fill="black" fill-opacity="0.6" stroke="#00FF00" stroke-opacity="0.6" stroke-width="0.5" stroke-linecap="round" stroke-linejoin="round"/>
<path id="AtroposFate" fill-rule="evenodd" clip-rule="evenodd" d="M229.57 289.199L271.084 444.245H385.787L431.22 366.722L250.327 275.104L229.57 289.199Z" fill="black" fill-opacity="0.6" stroke="#00FF00" stroke-opacity="0.6" stroke-width="0.5" stroke-linecap="round" stroke-linejoin="round"/>
<path id="Sentry" fill-rule="evenodd" clip-rule="evenodd" d="M76.3594 353.631L128.711 444.25H271.09L229.576 289.203L146.549 303.298L76.3594 353.631Z" fill="black" fill-opacity="0.6" stroke="#00FF00" stroke-opacity="0.6" stroke-width="0.5" stroke-linecap="round" stroke-linejoin="round"/>
</g>
</g>
</svg>
