<svg width="515" height="445" viewBox="0 0 515 445" fill="none" xmlns="http://www.w3.org/2000/svg">
<g id="ViperPit">
<g id="Territories">
<path id="SerenitysBlight" fill-rule="evenodd" clip-rule="evenodd" d="M63.25 113.25L209.411 216.489L342.912 160.812L406.25 36.25L385.25 0.25H128.25L63.25 113.25Z" fill="black" fill-opacity="0.6" stroke="#00FF00" stroke-opacity="0.6" stroke-width="0.5" stroke-linecap="round" stroke-linejoin="round"/>
<path id="EarlCrowley" fill-rule="evenodd" clip-rule="evenodd" d="M342.922 160.812L349.935 250.999L449.25 334.25L514.25 222.25L406.044 35.9375L342.922 160.812Z" fill="black" fill-opacity="0.6" stroke="#00FF00" stroke-opacity="0.6" stroke-width="0.5" stroke-linecap="round" stroke-linejoin="round"/>
<path id="FleckCrossing" fill-rule="evenodd" clip-rule="evenodd" d="M209.641 216.314L244.709 299.564L349.913 251.002L342.899 160.814L209.641 216.314Z" fill="black" fill-opacity="0.6" stroke="#00FF00" stroke-opacity="0.6" stroke-width="0.5" stroke-linecap="round" stroke-linejoin="round"/>
<path id="Kirknell" fill-rule="evenodd" clip-rule="evenodd" d="M0.25 222.25L45.25 300.25L112.7 299.558L209.412 216.488L63.25 113.25L0.25 222.25Z" fill="black" fill-opacity="0.6" stroke="#00FF00" stroke-opacity="0.6" stroke-width="0.5" stroke-linecap="round" stroke-linejoin="round"/>
<path id="FortViper" fill-rule="evenodd" clip-rule="evenodd" d="M111.461 299.56L174.583 320.372L237.706 306.497L244.72 299.56L209.408 216.49L111.461 299.56Z" fill="black" fill-opacity="0.6" stroke="#00FF00" stroke-opacity="0.6" stroke-width="0.5" stroke-linecap="round" stroke-linejoin="round"/>
<path id="Moltworth" fill-rule="evenodd" clip-rule="evenodd" d="M237.703 306.498L314.25 444.25H386.25L449.25 334.25L349.921 250.998L244.717 299.56L237.703 306.498Z" fill="black" fill-opacity="0.6" stroke="#00FF00" stroke-opacity="0.6" stroke-width="0.5" stroke-linecap="round" stroke-linejoin="round"/>
<path id="TheFriars" fill-rule="evenodd" clip-rule="evenodd" d="M45.25 300.25L128.25 444.25H161.25L174.597 320.373L111.474 299.561L45.25 300.25Z" fill="black" fill-opacity="0.6" stroke="#00FF00" stroke-opacity="0.6" stroke-width="0.5" stroke-linecap="round" stroke-linejoin="round"/>
<path id="Blackthroat" fill-rule="evenodd" clip-rule="evenodd" d="M161.25 444.25H314.25L237.712 306.5L174.59 320.375L161.25 444.25Z" fill="black" fill-opacity="0.6" stroke="#00FF00" stroke-opacity="0.6" stroke-width="0.5" stroke-linecap="round" stroke-linejoin="round"/>
</g>
</g>
</svg>
