<svg width="515" height="445" viewBox="0 0 515 445" fill="none" xmlns="http://www.w3.org/2000/svg">
<g id="WeatheredExpanse">
<g id="Territories">
<path id="TheWeatheringHalls" fill-rule="evenodd" clip-rule="evenodd" d="M96.4453 54.6311L309.86 141.203L427.095 71.7263L386.012 0.25H128.501L96.4453 54.6311Z" fill="black" fill-opacity="0.6" stroke="#00FF00" stroke-opacity="0.6" stroke-width="0.5" stroke-linecap="round" stroke-linejoin="round"/>
<path id="ShatteredAdvance" fill-rule="evenodd" clip-rule="evenodd" d="M76.4062 89.8681L141.531 169.392L197.641 197.583L288.821 162.344L309.863 141.201L96.4477 54.6299L76.4062 89.8681Z" fill="black" fill-opacity="0.6" stroke="#00FF00" stroke-opacity="0.6" stroke-width="0.5" stroke-linecap="round" stroke-linejoin="round"/>
<path id="Frostmarch" fill-rule="evenodd" clip-rule="evenodd" d="M0.25 222.773L52.3606 312.345L141.527 169.392L76.4021 89.8682L0.25 222.773Z" fill="black" fill-opacity="0.6" stroke="#00FF00" stroke-opacity="0.6" stroke-width="0.5" stroke-linecap="round" stroke-linejoin="round"/>
<path id="Wightwalk" fill-rule="evenodd" clip-rule="evenodd" d="M288.809 162.342L309.85 268.056L475.182 289.199L514.251 221.771L427.085 71.7227L309.85 141.199L288.809 162.342Z" fill="black" fill-opacity="0.6" stroke="#00FF00" stroke-opacity="0.6" stroke-width="0.5" stroke-linecap="round" stroke-linejoin="round"/>
<path id="CrowsNest" fill-rule="evenodd" clip-rule="evenodd" d="M52.3672 312.342L197.644 253.961V197.58L141.533 169.39L52.3672 312.342Z" fill="black" fill-opacity="0.6" stroke="#00FF00" stroke-opacity="0.6" stroke-width="0.5" stroke-linecap="round" stroke-linejoin="round"/>
<path id="Huntsfort" fill-rule="evenodd" clip-rule="evenodd" d="M197.645 253.964L246.741 296.25L281.81 289.202L309.866 268.059L288.824 162.345L197.645 197.583V253.964Z" fill="black" fill-opacity="0.6" stroke="#00FF00" stroke-opacity="0.6" stroke-width="0.5" stroke-linecap="round" stroke-linejoin="round"/>
<path id="Necropolis" fill-rule="evenodd" clip-rule="evenodd" d="M52.3672 312.343L128.505 444.248H148.547L246.741 296.248L197.644 253.962L52.3672 312.343Z" fill="black" fill-opacity="0.6" stroke="#00FF00" stroke-opacity="0.6" stroke-width="0.5" stroke-linecap="round" stroke-linejoin="round"/>
<path id="SpiritWatch" fill-rule="evenodd" clip-rule="evenodd" d="M281.82 289.202L351.959 444.25H386.028L475.207 289.202L309.876 268.06L281.82 289.202Z" fill="black" fill-opacity="0.6" stroke="#00FF00" stroke-opacity="0.6" stroke-width="0.5" stroke-linecap="round" stroke-linejoin="round"/>
<path id="Foxcatcher" fill-rule="evenodd" clip-rule="evenodd" d="M148.547 444.248H351.948L281.81 289.2L246.74 296.248L148.547 444.248Z" fill="black" fill-opacity="0.6" stroke="#00FF00" stroke-opacity="0.6" stroke-width="0.5" stroke-linecap="round" stroke-linejoin="round"/>
</g>
</g>
</svg>
