<svg width="515" height="445" viewBox="0 0 515 445" fill="none" xmlns="http://www.w3.org/2000/svg">
<g id="Westgate">
<g id="Territories">
<path id="TheGallows" fill-rule="evenodd" clip-rule="evenodd" d="M22.2812 183.488L274.772 56.631L288.8 0.25H128.486L22.2812 183.488Z" fill="black" fill-opacity="0.6" stroke="#00FF00" stroke-opacity="0.6" stroke-width="0.5" stroke-linecap="round" stroke-linejoin="round"/>
<path id="RanchersFast" fill-rule="evenodd" clip-rule="evenodd" d="M274.781 56.631L309.849 127.107L387 141.202L451.122 114.012L386 0.25H288.809L274.781 56.631Z" fill="black" fill-opacity="0.6" stroke="#00FF00" stroke-opacity="0.6" stroke-width="0.5" stroke-linecap="round" stroke-linejoin="round"/>
<path id="Holdfast" fill-rule="evenodd" clip-rule="evenodd" d="M14.2734 197.579L120.478 225.77H169.574L246.724 197.579L309.846 127.103L274.778 56.627L22.2871 183.484L14.2734 197.579Z" fill="black" fill-opacity="0.6" stroke="#00FF00" stroke-opacity="0.6" stroke-width="0.5" stroke-linecap="round" stroke-linejoin="round"/>
<path id="Kingstone" fill-rule="evenodd" clip-rule="evenodd" d="M246.719 197.58L365.951 232.818L374.25 223.25L386.992 141.199L309.842 127.104L246.719 197.58Z" fill="black" fill-opacity="0.6" stroke="#00FF00" stroke-opacity="0.6" stroke-width="0.5" stroke-linecap="round" stroke-linejoin="round"/>
<path id="LordsMouth" fill-rule="evenodd" clip-rule="evenodd" d="M374.25 223.25L507.236 233.817L514.249 222.77L451.127 114.008L387.004 141.198L374.25 223.25Z" fill="black" fill-opacity="0.6" stroke="#00FF00" stroke-opacity="0.6" stroke-width="0.5" stroke-linecap="round" stroke-linejoin="round"/>
<path id="WestgateKeep" fill-rule="evenodd" clip-rule="evenodd" d="M169.57 225.774L260.748 303.298L358.939 275.108L365.952 232.822L246.72 197.584L169.57 225.774Z" fill="black" fill-opacity="0.6" stroke="#00FF00" stroke-opacity="0.6" stroke-width="0.5" stroke-linecap="round" stroke-linejoin="round"/>
<path id="LostPartition" fill-rule="evenodd" clip-rule="evenodd" d="M358.938 275.1L437.088 355.624L507.224 233.814L374.25 223.25L365.951 232.814L358.938 275.1Z" fill="black" fill-opacity="0.6" stroke="#00FF00" stroke-opacity="0.6" stroke-width="0.5" stroke-linecap="round" stroke-linejoin="round"/>
<path id="Longstone" fill-rule="evenodd" clip-rule="evenodd" d="M260.758 303.294L295.826 444.246H386.003L437.099 355.627L358.949 275.104L260.758 303.294Z" fill="black" fill-opacity="0.6" stroke="#00FF00" stroke-opacity="0.6" stroke-width="0.5" stroke-linecap="round" stroke-linejoin="round"/>
<path id="ZeusDemise" fill-rule="evenodd" clip-rule="evenodd" d="M120.477 225.773L218.668 444.25H295.818L260.749 303.297L169.572 225.773H120.477Z" fill="black" fill-opacity="0.6" stroke="#00FF00" stroke-opacity="0.6" stroke-width="0.5" stroke-linecap="round" stroke-linejoin="round"/>
<path id="Wyattwick" fill-rule="evenodd" clip-rule="evenodd" d="M0.25 222.774L128.496 444.251H218.673L120.482 225.774L14.2773 197.584L0.25 222.774Z" fill="black" fill-opacity="0.6" stroke="#00FF00" stroke-opacity="0.6" stroke-width="0.5" stroke-linecap="round" stroke-linejoin="round"/>
</g>
</g>
</svg>
